<?xml version="1.0" encoding="UTF-8" standalone="no"?>
<svg
   xmlns:dc="http://purl.org/dc/elements/1.1/"
   xmlns:cc="http://creativecommons.org/ns#"
   xmlns:rdf="http://www.w3.org/1999/02/22-rdf-syntax-ns#"
   xmlns:svg="http://www.w3.org/2000/svg"
   xmlns="http://www.w3.org/2000/svg"
   xmlns:sodipodi="http://sodipodi.sourceforge.net/DTD/sodipodi-0.dtd"
   xmlns:inkscape="http://www.inkscape.org/namespaces/inkscape"
   width="772.3"
   height="494.39"
   version="1.1"
   viewBox="0 0 772.30133 494.38666"
   xml:space="preserve"
   id="svg1751"
   sodipodi:docname="freelancify-background-whitebg.svg"
   inkscape:version="0.92.3 (2405546, 2018-03-11)"><sodipodi:namedview
     pagecolor="#ffffff"
     bordercolor="#666666"
     borderopacity="1"
     objecttolerance="10"
     gridtolerance="10"
     guidetolerance="10"
     inkscape:pageopacity="0"
     inkscape:pageshadow="2"
     inkscape:window-width="1920"
     inkscape:window-height="1001"
     id="namedview1753"
     showgrid="false"
     inkscape:zoom="0.62076707"
     inkscape:cx="514.78511"
     inkscape:cy="447.766"
     inkscape:window-x="-9"
     inkscape:window-y="-9"
     inkscape:window-maximized="1"
     inkscape:current-layer="g1109" /><metadata
     id="metadata2"><rdf:RDF><cc:Work
         rdf:about=""><dc:format>image/svg+xml</dc:format><dc:type
           rdf:resource="http://purl.org/dc/dcmitype/StillImage" /><dc:title /></cc:Work></rdf:RDF></metadata><defs
     id="defs123"><clipPath
       id="ak"><path
         d="m0 500h750v-500h-750z"
         id="path4" /></clipPath><clipPath
       id="aj"><path
         d="m340.65 335.3h302.65v-114.83h-302.65z"
         id="path7" /></clipPath><clipPath
       id="ai"><path
         d="m349.82 150.8h296.47v-33.508h-296.47z"
         id="path10" /></clipPath><clipPath
       id="ah"><path
         d="m518.45 200.69h23.032v-55.669h-23.032z"
         id="path13" /></clipPath><clipPath
       id="ag"><path
         d="m504.29 204.1h3.866v-59.174h-3.866z"
         id="path16" /></clipPath><clipPath
       id="af"><path
         d="m472.37 204.1h24.108v-55.758h-24.108z"
         id="path19" /></clipPath><clipPath
       id="ae"><path
         d="m464.35 255.24h39.001v-15.648h-39.001z"
         id="path22" /></clipPath><clipPath
       id="ad"><path
         d="m502.6 265.04h32.41v-42.634h-32.41z"
         id="path25" /></clipPath><linearGradient
       id="c"
       x2="1"
       gradientTransform="matrix(9.6148 -40.538 -40.538 -9.6148 480.24 248.14)"
       gradientUnits="userSpaceOnUse"><stop
         stop-color="#fff"
         offset="0"
         id="stop28" /><stop
         stop-color="#d8d8d8"
         offset="1"
         id="stop30" /></linearGradient><clipPath
       id="ac"><path
         d="m0 500h750v-500h-750z"
         id="path33" /></clipPath><clipPath
       id="ab"><path
         d="m477 237h11.859v-8.23h-11.859z"
         id="path36" /></clipPath><clipPath
       id="aa"><path
         d="m369.69 200.69h23.032v-55.669h-23.032z"
         id="path39" /></clipPath><clipPath
       id="z"><path
         d="m403.01 204.1h3.866v-59.174h-3.866z"
         id="path42" /></clipPath><clipPath
       id="y"><path
         d="m417.17 200.69h24.108v-55.758h-24.108z"
         id="path45" /></clipPath><clipPath
       id="x"><path
         d="m379.78 255.15h24.319v-38.595h-24.319z"
         id="path48" /></clipPath><clipPath
       id="w"><path
         d="m369.5 218.94h7.509v-10.181h-7.509z"
         id="path51" /></clipPath><clipPath
       id="v"><path
         d="m573.12 218.94h7.509v-10.181h-7.509z"
         id="path54" /></clipPath><linearGradient
       id="b"
       x2="1"
       gradientTransform="matrix(0 -24.177 -24.177 0 475.06 227.96)"
       gradientUnits="userSpaceOnUse"><stop
         stop-color="#ffe7db"
         offset="0"
         id="stop57" /><stop
         stop-color="#ffe7db"
         offset=".62727"
         id="stop59" /><stop
         stop-color="#916262"
         offset="1"
         id="stop61" /></linearGradient><clipPath
       id="u"><path
         d="m0 500h750v-500h-750z"
         id="path64" /></clipPath><linearGradient
       id="a"
       x2="1"
       gradientTransform="matrix(-3.0351 -19.301 19.137 0 421.99 231.22)"
       gradientUnits="userSpaceOnUse"><stop
         stop-color="#fff"
         offset="0"
         id="stop67" /><stop
         stop-color="#d8d8d8"
         offset="1"
         id="stop69" /></linearGradient><clipPath
       id="t"><path
         d="m0 500h750v-500h-750z"
         id="path72" /></clipPath><clipPath
       id="s"><path
         d="m403.07 245.45h6.597v-23.386h-6.597z"
         id="path75" /></clipPath><clipPath
       id="r"><path
         d="m418.53 237.6h7.709v-7.678h-7.709z"
         id="path78" /></clipPath><clipPath
       id="q"><path
         d="m590.65 188.38-14.084 0.064-11.912 2.845s-36.93-46.939-35.474-50.84c1.455-3.9 11.772-13.906 13.971-15.771 2.197-1.866 84.647 4.07 84.647 4.07l3.546 14.676-26.117 48.625z"
         id="path81" /></clipPath><clipPath
       id="p"><path
         d="m547.98 196.56h24.293v-58.716h-24.293z"
         id="path84" /></clipPath><clipPath
       id="o"><path
         d="m583.13 192.63h4.078v-62.414h-4.078z"
         id="path87" /></clipPath><clipPath
       id="n"><path
         d="m598.06 196.56h25.428v-58.81h-25.428z"
         id="path90" /></clipPath><clipPath
       id="m"><path
         d="m0 500h750v-500h-750z"
         id="path93" /></clipPath><clipPath
       id="l"><path
         d="m546.55 191.13h39.637v-43.993h-39.637z"
         id="path96" /></clipPath><clipPath
       id="k"><path
         d="m433.46 368.03h111.31v-58.528h-111.31z"
         id="path99" /></clipPath><clipPath
       id="j"><path
         d="m446.43 349.4h-0.022c-9.817 0-17.776-7.957-17.776-17.775 0-9.817 7.959-17.775 17.776-17.775h80.314c7.302 0 13.223 5.921 13.223 13.223 0 7.303-5.921 13.223-13.223 13.223-2.036 0-3.958-0.473-5.681-1.296-0.675 11.004-9.808 19.722-20.983 19.722-2.691 0-5.261-0.511-7.627-1.433-3.491 8.835-12.101 15.089-22.179 15.089-12.878 0-23.366-10.21-23.822-22.978m35.197-21.828c0.093-0.169 0.19-0.333 0.287-0.499h-1.259c0.329 0.16 0.653 0.325 0.972 0.499"
         id="path102" /></clipPath><clipPath
       id="i"><path
         d="m429.6 370.42h116.29v-54.6h-116.29z"
         id="path105" /></clipPath><clipPath
       id="h"><path
         d="m429.6 370.42h49.691v-54.6h-49.691z"
         id="path108" /></clipPath><clipPath
       id="g"><path
         d="m485.18 370.42h60.708v-54.6h-60.708z"
         id="path111" /></clipPath><clipPath
       id="f"><path
         d="m0 500h750v-500h-750z"
         id="path114" /></clipPath><clipPath
       id="e"><path
         d="m363.18 332.51h54.736v-31.65h-54.736z"
         id="path117" /></clipPath><clipPath
       id="d"><path
         d="m553.23 322.98h57.424v-31.948h-57.424z"
         id="path120" /></clipPath></defs><g
     transform="matrix(1.3333,0,0,-1.3333,-113.84,587.2)"
     id="g1749"><g
       clip-path="url(#ak)"
       id="g1109"><g
         transform="translate(540.9,145.66)"
         id="g1001"><path
           d="m 0,0 -22.45,53.606 3.593,1.427 L 1.572,0.624 C 1.778,0.072 1.603,-0.512 1.18,-0.68 0.758,-0.847 0.229,-0.543 0,0"
           id="path999"
           inkscape:connector-curvature="0"
           style="fill:#723e24" /></g><g
         clip-path="url(#ah)"
         id="g1007"
         style="opacity:0.37000002"><g
           transform="translate(522.67,199.03)"
           id="g1005"><path
             d="m 0,0 -2.286,-0.907 21.101,-53.1 c -0.239,0.115 -0.456,0.338 -0.582,0.636 l -22.45,53.606 3.593,1.427 z"
             id="path1003"
             inkscape:connector-curvature="0" /></g></g><g
         transform="translate(505.38,146)"
         id="g1011"><path
           d="M 0,0 -1.087,58.106 H 2.778 L 1.692,0 C 1.68,-0.59 1.301,-1.067 0.846,-1.067 0.392,-1.067 0.013,-0.59 0,0"
           id="path1009"
           inkscape:connector-curvature="0"
           style="fill:#723e24" /></g><g
         clip-path="url(#ag)"
         id="g1017"
         style="opacity:0.37000002"><g
           transform="translate(508.13,202.57)"
           id="g1015"><path
             d="m 0,0 h -2.88 l 1.077,-57.631 c -0.033,-0.006 -0.066,-0.014 -0.101,-0.014 -0.454,0 -0.833,0.478 -0.846,1.068 L -3.837,1.529 h 3.865 z"
             id="path1013"
             inkscape:connector-curvature="0" /></g></g><g
         transform="translate(474.03,149.07)"
         id="g1021"><path
           d="M 0,0 22.449,53.606 18.856,55.032 -1.573,0.624 C -1.778,0.071 -1.603,-0.512 -1.18,-0.68 -0.758,-0.848 -0.229,-0.543 0,0"
           id="path1019"
           inkscape:connector-curvature="0"
           style="fill:#723e24" /></g><g
         clip-path="url(#af)"
         id="g1027"
         style="opacity:0.37000002"><g
           transform="translate(472.45,149.7)"
           id="g1025"><path
             d="M 0,0 20.43,54.408 24.022,52.982 23.61,51.997 21.387,52.879 1.074,-1.217 C 0.856,-1.35 0.61,-1.39 0.394,-1.304 -0.029,-1.136 -0.205,-0.553 0,0"
             id="path1023"
             inkscape:connector-curvature="0" /></g></g><g
         transform="translate(480.59,199.36)"
         id="g1031"><path
           d="m 0,0 c 3.921,-3.189 9.729,-6.125 24.484,-6.416 19.41,-0.383 29.571,1.82 35.085,11.83 9.21,16.717 -2.314,70.724 -20.494,58.76 C 23.879,54.173 20.835,22.246 18.826,17.832 16.817,13.419 -9.514,7.74 0,0"
           id="path1029"
           inkscape:connector-curvature="0"
           style="fill:#e8f6f7" /></g><g
         transform="translate(501.71,197.08)"
         id="g1035"><path
           d="M 0,0 C 19.409,-0.383 29.57,1.82 35.085,11.83 41.371,23.24 37.997,52.022 29.44,65.342 40.392,55.191 45.505,20.501 38.449,7.695 32.935,-2.314 22.773,-4.518 3.364,-4.135 c -14.755,0.291 -20.563,3.227 -24.484,6.416 -1.335,1.087 -1.964,2.132 -2.054,3.14 C -19.239,2.638 -13.201,0.26 0,0"
           id="path1033"
           inkscape:connector-curvature="0"
           style="fill:#d0e0e2" /></g><g
         transform="translate(470.24,255.67)"
         id="g1039"><path
           d="m 0,0 c 0,0 -3.189,2.25 -3.304,3.195 -0.114,0.946 -2.337,4.775 -3.048,5.537 -0.711,0.762 -4.45,2.058 -5.248,2.172 -0.796,0.114 -5.374,-0.275 -4.804,-0.899 0.57,-0.625 3.532,-0.397 4.101,-0.738 l 0.57,-0.342 c 0,0 -0.57,-0.773 -0.342,-1.241 0.227,-0.468 -0.978,-1.187 -0.523,-1.985 0.456,-0.798 -0.183,-0.741 0.224,-1.574 0.674,-1.374 2.396,-2.139 2.853,-1.764 0.341,-0.813 1.649,-2.472 2.875,-2.358 1.225,0.114 4.203,-2.677 4.203,-2.677"
           id="path1037"
           inkscape:connector-curvature="0"
           style="fill:#ffb9b0" /></g><g
         transform="translate(518.87,271.68)"
         id="g1043"><path
           d="m 0,0 c 0.108,-2.142 -0.043,-5.873 0.57,-6.425 0.614,-0.553 2.592,-0.467 2.592,-0.467 0,0 -7.077,-8.949 -7.71,-8.457 -0.633,0.492 -9.003,7.313 -7.121,7.664 1.881,0.352 3.722,0.278 3.668,1.251 -0.054,0.974 -0.106,1.948 -0.16,2.921"
           id="path1041"
           inkscape:connector-curvature="0"
           style="fill:#ffb9b0" /></g><g
         transform="translate(526.94,223.89)"
         id="g1047"><path
           d="m 0,0 c 0,0 -13.809,-1.568 -16.987,-1.634 -3.179,-0.065 -3.022,1.594 -3.022,1.594 -0.161,3.499 -0.754,11.745 -1.412,14.539 -0.614,2.608 -0.886,3.572 -1.421,6.052 -1.187,5.509 -1.135,6.561 -2.393,13.363 l 8.248,6.629 c 0,0 0.853,-2.537 4.31,-2.581 4.621,-0.059 6.059,3.178 6.059,3.178 L 4.631,33.671 5.687,15.503 4.341,0.541"
           id="path1045"
           inkscape:connector-curvature="0"
           style="fill:#fca70c" /></g><g
         transform="translate(519.03,273.62)"
         id="g1051"><path
           d="m 0,0 c -0.25,-1.079 -0.575,-2.141 -0.974,-3.174 -0.728,-1.895 -1.803,-2.576 -3.809,-2.624 -1.409,-0.034 -2.819,-0.067 -4.228,-0.1 -1.082,-0.026 -2.428,-0.062 -3.302,0.696 -0.867,0.753 -0.885,2.02 -1.077,3.062 -0.246,1.334 -0.446,2.677 -0.6,4.024 -0.302,2.639 -0.427,5.299 -0.372,7.955 0.007,0.365 0.018,0.732 0.094,1.088 0.031,0.145 0.077,0.295 0.181,0.4 0.131,0.131 0.325,0.167 0.508,0.195 2.641,0.417 5.32,0.588 7.992,0.512 1.888,-0.054 3.889,-0.274 5.383,-1.429 C 1.3,9.442 2.013,7.554 2.655,5.765 2.759,5.477 2.836,5.094 2.586,4.918"
           id="path1049"
           inkscape:connector-curvature="0"
           style="fill:#ffb9b0" /></g><g
         transform="translate(478.52,159.92)"
         id="g1055"><path
           d="M 0,0 C 0,0 0.521,-3.116 0.935,-4.182 1.349,-5.248 4.846,-4.266 5.076,-3.576 5.308,-2.888 3.977,2.181 3.977,2.181"
           id="path1053"
           inkscape:connector-curvature="0"
           style="fill:#ed9c80" /></g><g
         transform="translate(484.82,155.46)"
         id="g1059"><path
           d="m 0,0 c 0.303,-1.149 0.684,-3.354 0.684,-3.354 l -3.495,-1.523 -0.573,0.539 c 0,0 -0.867,-1.051 -1.939,-1.546 -0.796,-0.368 -2.511,-0.845 -3.383,-0.938 -3.051,-0.329 -6.651,-0.043 -6.833,0.38 -0.757,1.767 3.291,2.241 4.094,2.453 2.307,0.606 4.945,2.852 5.191,4.13 0.178,0.925 -0.052,1.088 0.467,1.06 0,0 0.453,0.024 0.874,-0.41 0.645,-0.666 1.617,-0.97 2.482,-0.577 0.494,0.223 0.964,0.552 1.24,1.031 0,0 0.888,-0.096 1.191,-1.245"
           id="path1057"
           inkscape:connector-curvature="0"
           style="fill:#132333" /></g><g
         transform="translate(493.97,200.66)"
         id="g1063"><path
           d="m 0,0 c -5.463,-1.073 -12.321,-1.151 -17.842,-0.423 0.772,-2.213 2.665,-5.048 3.386,-8.164 2.381,-10.291 3.207,-24.114 3.811,-32.666 0,0 -1.143,-2.195 -4.805,-0.524 -5.473,13.515 -15.027,40.906 -14.938,46.848 0.113,7.566 18.994,9.392 32.832,11.255"
           id="path1061"
           inkscape:connector-curvature="0"
           style="fill:#453087" /></g><g
         transform="translate(518.09,215.81)"
         id="g1067"><path
           d="m 0,0 c 4.352,-3.178 -24.119,-15.146 -24.119,-15.146 -3.158,-0.621 -6.234,-0.899 -9.332,-0.891 -0.294,0.565 -0.569,1.143 -0.695,1.766 -0.167,0.827 -0.078,1.686 -0.222,2.517 -0.281,1.616 -1.442,2.983 -2.844,3.833 -1.403,0.852 -3.033,1.247 -4.653,1.508 -3.85,0.621 -10.571,0.185 -10.571,0.185 8.556,6.308 26.066,7.134 34.22,7.653 C -16.654,-1.148 -0.624,0.455 0,0"
           id="path1065"
           inkscape:connector-curvature="0"
           style="fill:#38287c" /></g><g
         transform="translate(487.55,152.73)"
         id="g1071"><path
           d="m 0,0 c 0,0 -0.028,-3.16 0.195,-4.281 0.224,-1.121 3.838,-0.76 4.185,-0.121 0.347,0.637 -0.086,5.86 -0.086,5.86"
           id="path1069"
           inkscape:connector-curvature="0"
           style="fill:#ed9c80" /></g><g
         transform="translate(492.97,147.25)"
         id="g1075"><path
           d="m 0,0 c 0.099,-1.185 0.092,-3.422 0.092,-3.422 l -3.705,-0.893 -0.472,0.629 c 0,0 -1.035,-0.884 -2.178,-1.186 -0.847,-0.224 -2.619,-0.396 -3.494,-0.337 -3.061,0.205 -7.303,1.104 -7.408,1.551 -0.439,1.871 3.63,1.637 4.457,1.706 2.378,0.198 6.109,1.96 6.573,3.175 0.336,0.881 0.138,1.081 0.644,0.964 0,0 0.45,-0.056 0.789,-0.556 0.52,-0.768 1.426,-1.235 2.346,-0.999 0.525,0.136 1.044,0.377 1.398,0.801 0,0 0.859,-0.248 0.958,-1.433"
           id="path1073"
           inkscape:connector-curvature="0"
           style="fill:#132333" /></g><g
         transform="translate(527.58,216.44)"
         id="g1079"><path
           d="m 0,0 c 0,0 -8.708,-0.863 -19.288,-0.615 -2.464,0 -21.096,-3.497 -22.878,-6.655 -2.932,-5.192 1.912,-35.544 1.464,-57.276 0,0 2.234,-1.865 6.184,-0.112 0.983,10.676 7.289,35.857 2.939,47.615 10.271,-1.364 18.559,-2.719 27.895,0.376 2.187,0.725 3.822,2.269 4.804,5.095 C 2.106,-8.736 1.592,-2.536 0,0"
           id="path1077"
           inkscape:connector-curvature="0"
           style="fill:#453087" /></g><g
         transform="translate(509.96,264.44)"
         id="g1083"><path
           d="m 0,0 c 0,0 -1.973,-0.109 -2.357,-0.139 -1.645,-0.131 -3.32,-0.347 -4.875,-0.923 -2.238,-0.829 -3.817,-2.909 -5.637,-4.536 -1.753,-1.568 -10.84,-10.225 -12.535,-10.545 -1.696,-0.319 -16.573,9.877 -16.573,9.877 l -3.632,-3.632 c 0,0 16.144,-14.917 20.958,-14.943 2.337,-0.013 15.223,6.772 19.347,9.408 z"
           id="path1081"
           inkscape:connector-curvature="0"
           style="fill:#fca70c" /></g><g
         clip-path="url(#ae)"
         id="g1089"
         style="opacity:0.25"><g
           transform="translate(485.34,242.46)"
           id="g1087"><path
             d="m 0,0 c -3.318,-0.187 -18.527,11.427 -20.291,12.783 l -0.705,-0.705 c 0,0 16.144,-14.917 20.958,-14.942 1.948,-0.011 11.217,4.697 16.64,7.794 l 1.403,0.814 -0.842,5.015 C 17.163,10.759 3.523,0.199 0,0"
             id="path1085"
             inkscape:connector-curvature="0"
             style="fill:#ce4a30" /></g></g><g
         clip-path="url(#ad)"
         id="g1095"
         style="opacity:0.25"><g
           transform="translate(526.21,254.03)"
           id="g1093"><path
             d="m 0,0 c -1.839,-8.316 -2.164,-14.824 -2.684,-20.77 -6.458,-2.506 -10.985,-6.007 -17.303,-8.82 0,0 -3.091,0.599 -3.616,-1.284 -0.302,-1.085 5.548,-0.674 5.548,-0.674 5.857,-0.027 21.593,2.978 22.639,3.264 1.046,0.287 4.088,19.919 4.21,30.573 C 8.812,3.802 8.758,5.444 7.812,6.625 7.313,7.246 6.614,7.671 5.906,8.034 1.785,10.141 -1.267,10.716 -5.886,11.009"
             id="path1091"
             inkscape:connector-curvature="0"
             style="fill:#ce4a30" /></g></g><g
         transform="translate(508.99,223.89)"
         id="g1099"><path
           d="M 0,0 C -0.693,0.874 -1.959,1 -3.074,0.973 -3.9,0.953 -4.725,0.887 -5.543,0.776 -5.916,0.726 -6.345,0.639 -6.385,0.234 c -0.04,-0.404 1.81,0 2.78,-0.28 -1.9,-0.163 -3.809,-0.215 -5.714,-0.155 -0.222,0.007 -0.452,0.014 -0.658,-0.068 -0.206,-0.082 -0.384,-0.279 -0.37,-0.501 0.011,-0.172 0.132,-0.318 0.261,-0.434 0.533,-0.48 1.261,-0.669 1.966,-0.792 2.914,-0.51 5.976,-0.422 8.685,0.767"
           id="path1097"
           inkscape:connector-curvature="0"
           style="fill:#ffb9b0" /></g><g
         transform="translate(525.81,254.18)"
         id="g1103"><path
           d="m 0,0 c -0.151,-8.89 -0.782,-12.958 -0.609,-21.847 -4.463,-0.953 -12,-4.739 -18.319,-7.552 0,0 0.196,-2.127 0.781,-3.185 0.481,-0.177 22.101,4.501 23.758,6.027 1.491,1.374 3.462,18.036 3.584,28.69 C 9.213,3.646 9.159,5.288 8.213,6.469 7.715,7.09 7.016,7.516 6.308,7.878 2.187,9.985 -0.865,10.56 -5.484,10.854"
           id="path1101"
           inkscape:connector-curvature="0"
           style="fill:#fca70c" /></g><g
         transform="translate(469.85,221.45)"
         id="g1107"><path
           d="m 0,0 h 36.954 l -6.626,21.602 c -0.366,1.192 -1.468,2.006 -2.715,2.006 H -4.75 c -1.238,0 -2.124,-1.198 -1.761,-2.381 z"
           id="path1105"
           inkscape:connector-curvature="0"
           style="fill:#9a9fb3" /></g></g><path
       d="m 464.08,245.06 c -1.238,0 -2.124,-1.198 -1.761,-2.381 l 6.348,-20.695 c 0.097,-0.316 0.388,-0.532 0.72,-0.532 h 36.397 l -6.626,21.602 c -0.367,1.192 -1.467,2.006 -2.715,2.006 z"
       id="path1111"
       inkscape:connector-curvature="0"
       style="fill:url(#c)" /><g
       clip-path="url(#ac)"
       id="g1267"><g
         clip-path="url(#ab)"
         id="g1117"
         style="opacity:0.45"><g
           transform="translate(488.17,232.88)"
           id="g1115"><path
             d="m 0,0 c 0.132,-1.895 -2.106,-3.431 -5,-3.431 -2.895,0 -5.348,1.536 -5.479,3.431 -0.133,1.895 2.105,3.431 4.999,3.431 C -2.586,3.431 -0.133,1.895 0,0 Z"
             stroke-miterlimit="10"
             id="path1113"
             inkscape:connector-curvature="0"
             style="fill:none;stroke:#a4a4f7;stroke-width:1.36899996;stroke-miterlimit:10" /></g></g><g
         transform="translate(486.26,232.88)"
         id="g1121"><path
           d="m 0,0 c 0.084,-1.055 -1.337,-1.909 -3.175,-1.909 -1.838,0 -3.395,0.854 -3.479,1.909 -0.084,1.055 1.338,1.909 3.175,1.909 C -1.642,1.909 -0.084,1.055 0,0"
           id="path1119"
           inkscape:connector-curvature="0"
           style="fill:#a4a4f7" /></g><g
         transform="translate(511.91,277.23)"
         id="g1125"><path
           d="m 0,0 c -0.154,-1.031 -0.532,-1.527 -1.56,-1.65 -1.457,-0.174 -1.737,0.4 -1.953,1.094 -0.215,0.695 -0.288,1.273 -0.272,1.433 0.046,0.435 0.351,0.493 1.268,0.666 C -1.6,1.717 -0.374,1.93 -0.193,1.738 -0.013,1.546 0.135,0.897 0,0 m -5.333,-0.785 c -0.037,-0.725 -0.398,-1.39 -1.205,-1.491 -0.751,-0.095 -1.095,0.304 -1.5,1.265 -0.354,0.836 -0.37,1.501 -0.243,1.732 0.128,0.23 0.532,0.223 1.464,0.281 0.931,0.059 1.242,0.079 1.393,-0.331 0.056,-0.15 0.128,-0.73 0.091,-1.456 M 0.608,2.079 C 0.539,2.411 -0.199,2.477 -0.94,2.383 -1.682,2.29 -3.658,2.042 -4.064,1.725 -4.471,1.409 -4.446,1.181 -4.663,1.157 -4.876,1.134 -4.891,1.356 -5.363,1.562 -5.835,1.768 -6.976,1.624 -7.717,1.531 -8.458,1.437 -9.162,1.273 -9.147,0.934 -9.133,0.595 -9.003,0.005 -8.852,-0.09 -8.7,-0.185 -8.7,-0.168 -8.117,-1.508 c 0.326,-0.749 0.826,-1.179 1.785,-0.97 1.219,0.266 1.297,1.655 1.391,2.235 0.094,0.581 0.181,0.667 0.367,0.691 0.189,0.025 0.312,-0.036 0.548,-0.575 0.235,-0.54 0.405,-1.782 1.655,-1.852 1.636,-0.092 2.345,0.468 2.571,1.517 C 0.507,0.96 0.437,0.965 0.56,1.094 0.616,1.153 1.783,0.99 1.783,0.99 L 1.756,1.415 c 0,0 -1.13,0.58 -1.148,0.664"
           id="path1123"
           inkscape:connector-curvature="0"
           style="fill:#483a99" /></g><g
         transform="translate(522.4,281.58)"
         id="g1129"><path
           d="m 0,0 c -0.088,0.757 -0.224,1.494 -0.406,2.191 -0.499,1.911 -1.667,3.53 -3.414,4.476 -2.228,1.205 -5.285,1.453 -7.726,0.769 -1.413,-0.396 -1.938,-1.141 -2.666,-1.12 -0.558,0.017 -1.255,0.392 -1.977,0.652 -5.528,1.985 -4.6,-3.424 -4.011,-4.91 0.261,-0.657 1.513,-1.135 1.68,-1.408 0.167,-0.273 0.149,-1.612 0.254,-2.201 0.107,-0.589 0.689,-0.814 0.689,-0.814 0,0 0.03,1.741 0.058,1.978 0.074,0.621 0.277,1.264 0.817,1.631 0.563,0.383 1.333,0.443 1.987,0.558 0.683,0.12 3.856,-0.49 4.068,-0.673 1.032,-0.885 1.297,-2.906 1.587,-4.093 0.135,-0.555 0.276,-0.928 0.501,-0.92 0.172,1.635 0.74,1.677 1.718,1.118 0.523,-0.298 0.815,-1.334 0.832,-2.211 0.021,-1.039 -0.558,-2.184 -1.648,-2.416 -0.391,-0.083 0.787,-2.315 1.331,-2.872 0.18,-0.183 0.356,-0.375 0.577,-0.506 0.204,-0.121 0.437,-0.184 0.665,-0.246 0.264,-0.072 0.527,-0.143 0.79,-0.214 0.356,-0.097 0.731,-0.193 1.085,-0.094 0.583,0.165 0.891,0.783 1.153,1.328 0.433,0.897 0.929,1.765 1.283,2.695 C 0.059,-5.111 0.284,-2.452 0,0"
           id="path1127"
           inkscape:connector-curvature="0"
           style="fill:#483a99" /></g><g
         transform="translate(370.27,145.66)"
         id="g1133"><path
           d="M 0,0 22.45,53.606 18.857,55.033 -1.573,0.624 C -1.778,0.072 -1.603,-0.512 -1.18,-0.68 -0.757,-0.847 -0.229,-0.543 0,0"
           id="path1131"
           inkscape:connector-curvature="0"
           style="fill:#723e24" /></g><g
         clip-path="url(#aa)"
         id="g1139"
         style="opacity:0.37000002"><g
           transform="translate(388.5,199.03)"
           id="g1137"><path
             d="m 0,0 2.286,-0.907 -21.102,-53.1 c 0.239,0.115 0.457,0.338 0.583,0.636 L 4.217,0.235 0.624,1.662 Z"
             id="path1135"
             inkscape:connector-curvature="0" /></g></g><g
         transform="translate(405.79,146)"
         id="g1143"><path
           d="M 0,0 1.087,58.106 H -2.778 L -1.692,0 c 0.012,-0.59 0.391,-1.067 0.846,-1.067 0.454,0 0.833,0.477 0.846,1.067"
           id="path1141"
           inkscape:connector-curvature="0"
           style="fill:#723e24" /></g><g
         clip-path="url(#z)"
         id="g1149"
         style="opacity:0.37000002"><g
           transform="translate(403.04,202.57)"
           id="g1147"><path
             d="M 0,0 H 2.88 L 1.802,-57.631 c 0.034,-0.006 0.067,-0.014 0.102,-0.014 0.454,0 0.833,0.478 0.846,1.068 L 3.837,1.529 h -3.865 z"
             id="path1145"
             inkscape:connector-curvature="0" /></g></g><g
         transform="translate(439.62,145.66)"
         id="g1153"><path
           d="m 0,0 -22.449,53.606 3.593,1.427 L 1.572,0.624 C 1.778,0.072 1.603,-0.512 1.18,-0.68 0.758,-0.847 0.229,-0.543 0,0"
           id="path1151"
           inkscape:connector-curvature="0"
           style="fill:#723e24" /></g><g
         clip-path="url(#y)"
         id="g1159"
         style="opacity:0.37000002"><g
           transform="translate(441.2,146.28)"
           id="g1157"><path
             d="m 0,0 -20.429,54.409 -3.592,-1.427 0.412,-0.985 2.223,0.882 20.313,-54.096 C -0.855,-1.35 -0.609,-1.39 -0.393,-1.304 0.03,-1.136 0.206,-0.552 0,0"
             id="path1155"
             inkscape:connector-curvature="0" /></g></g><g
         transform="translate(430.58,199.36)"
         id="g1163"><path
           d="m 0,0 c -3.921,-3.189 -9.729,-6.125 -24.484,-6.416 -19.411,-0.383 -29.571,1.82 -35.085,11.83 -9.211,16.717 2.314,70.724 20.494,58.76 15.196,-10.001 18.24,-41.928 20.249,-46.342 C -16.817,13.419 9.514,7.74 0,0"
           id="path1161"
           inkscape:connector-curvature="0"
           style="fill:#e8f6f7" /></g><g
         transform="translate(409.46,197.08)"
         id="g1167"><path
           d="m 0,0 c -19.409,-0.383 -29.57,1.82 -35.085,11.83 -6.287,11.41 -2.913,40.192 5.644,53.512 -10.951,-10.151 -16.064,-44.841 -9.008,-57.647 5.514,-10.009 15.675,-12.213 35.085,-11.83 14.755,0.291 20.563,3.227 24.484,6.416 1.335,1.087 1.964,2.132 2.054,3.14 C 19.239,2.638 13.201,0.26 0,0"
           id="path1165"
           inkscape:connector-curvature="0"
           style="fill:#d0e0e2" /></g><g
         transform="translate(433.9,159.55)"
         id="g1171"><path
           d="m 0,0 c 0.251,-1.415 -2.426,-5.158 1.167,-8.306 3.59,-3.142 11.753,-6.459 6.344,-6.584 -5.409,-0.125 -10.596,1.129 -13.352,2.488 -2.749,1.36 -0.555,3.497 -3.966,4.572 -4.496,1.421 -4.445,1.709 -2.271,6.602 C -9.085,5.507 -0.81,4.576 0,0"
           id="path1169"
           inkscape:connector-curvature="0"
           style="fill:#0a1828" /></g><g
         transform="translate(439.11,154.76)"
         id="g1175"><path
           d="m 0,0 c 0.628,-1.222 3.633,-4.045 7.798,-5.906 4.162,-1.859 12.987,-2.733 8.085,-4.37 -4.902,-1.637 -10.617,-0.645 -13.515,-0.182 -2.892,0.468 -5.698,0.529 -9.115,0.55 -4.504,0.03 -4.538,0.307 -3.932,5.387 C -9.843,2.469 -2.027,3.948 0,0"
           id="path1173"
           inkscape:connector-curvature="0"
           style="fill:#132333" /></g><g
         transform="translate(428.52,157.59)"
         id="g1179"><path
           d="m 0,0 1.746,-4.279 c 0,0 4.311,-1.049 6.373,0.047 2.063,1.095 1.235,2.033 1.235,2.033 L 7.547,4.142 Z"
           id="path1177"
           inkscape:connector-curvature="0"
           style="fill:#ffadad" /></g><g
         transform="translate(408.94,214.91)"
         id="g1183"><path
           d="m 0,0 c 0,0 18.489,-4.026 25.199,-5.667 6.711,-1.64 11.93,-4.473 8.798,-15.656 -3.131,-11.184 -8.35,-31.613 -8.35,-31.613 H 13.718 l 6.262,36.747 -34.891,4.111 -6.429,14.265 z"
           id="path1181"
           inkscape:connector-curvature="0"
           style="fill:#221c7d" /></g><g
         transform="translate(381.7,214.91)"
         id="g1187"><path
           d="m 0,0 c 0.795,-5.767 -0.895,-12.396 8.052,-14.996 8.947,-2.6 22.916,-2.798 22.916,-2.798 l 14.003,-41.962 c 0,0 3.907,-0.587 8.678,0.887 1.963,0.605 2.665,3.1 2.665,3.1 L 43.645,-12.87 c -0.993,3.357 -3.678,5.944 -7.069,6.81 L 15.092,0.47 Z"
           id="path1185"
           inkscape:connector-curvature="0"
           style="fill:#2d24a3" /></g><g
         transform="translate(384.92,234.25)"
         id="g1191"><path
           d="m 0,0 c 0.864,-2.244 1.071,-4.692 0.548,-7.045 -1.038,-4.67 0.142,-4.983 0.142,-4.983 0,0 6.33,-4.017 11.593,-5.659 3.773,-1.173 6.988,-0.975 6.898,3.19 l -0.003,0.058 c -0.006,0.252 -0.013,0.494 -0.019,0.73 -0.178,9.361 1.775,9.837 2.256,20.318 0.496,10.754 -2.379,16.752 -5.225,19.353 -2.851,2.596 -6.744,2.692 -14.064,0.962 -5.499,-1.296 -7.312,-2.756 -7.267,-6.825 0.015,-1.352 0.234,-2.995 0.592,-5.01 C -3.641,9.968 -1.473,3.82 0,0"
           id="path1189"
           inkscape:connector-curvature="0"
           style="fill:#b1c9dd" /></g><g
         clip-path="url(#x)"
         id="g1197"
         style="opacity:0.38000028"><g
           transform="translate(384.92,234.25)"
           id="g1195"><path
             d="m 0,0 c 0.864,-2.244 1.071,-4.692 0.548,-7.045 -1.038,-4.67 0.142,-4.983 0.142,-4.983 0,0 6.33,-4.017 11.593,-5.659 l 4.918,0.466 1.969,1.548 0.008,1.234 c -0.006,0.252 -0.013,0.494 -0.019,0.73 -1.123,-0.107 -3.68,-0.238 -7.427,0.193 -2.895,0.33 -5.527,1.157 -7.282,1.826 -1.279,0.483 -2.029,1.805 -1.791,3.154 0.319,1.841 0.695,4.479 0.682,6.529 C 3.325,0.054 2.371,3.537 1.591,6.05 0.995,7.979 0.792,9.996 0.936,12.007 1.179,15.486 0.93,18.797 0.93,18.797 l -3.899,2.112 -2.172,-0.81 c 0.015,-1.352 0.234,-2.995 0.592,-5.01 C -3.641,9.968 -1.473,3.82 0,0"
             id="path1193"
             inkscape:connector-curvature="0"
             style="fill:#61708e" /></g></g><g
         transform="translate(402.6,279.44)"
         id="g1201"><path
           d="m 0,0 c 0,0 0.488,-1.364 -0.251,-2.448 l -3.018,4.086 2.105,0.02 z"
           id="path1199"
           inkscape:connector-curvature="0"
           style="fill:#483a99" /></g><g
         transform="translate(386.21,274.04)"
         id="g1205"><path
           d="m 0,0 c 0.134,-5.27 4.679,-8.324 4.679,-8.324 l -0.304,-4.796 3.066,-1.987 2.105,-1.362 1.207,2.523 0.166,3.092 c 0.042,0.72 0.557,1.318 1.266,1.47 0.785,0.168 1.876,0.626 2.99,1.807 0.066,0.073 0.134,0.15 0.191,0.237 l 0.007,0.004 C 17.365,-4.622 18.119,5.776 11.298,8.729 4.254,11.785 -0.137,5.277 0,0"
           id="path1203"
           inkscape:connector-curvature="0"
           style="fill:#ffb9b0" /></g><g
         transform="translate(393.86,261.81)"
         id="g1209"><path
           d="m 0,0 -0.206,-2.876 2.104,-1.363 1.207,2.524 0.166,3.091 c 0.042,0.72 0.557,1.319 1.266,1.47 0.785,0.168 1.876,0.626 2.99,1.808 C 7.594,4.726 7.661,4.804 7.719,4.89 7.581,4.809 5.933,3.843 3.427,3.563 1.576,3.356 0.133,1.858 0,0"
           id="path1207"
           inkscape:connector-curvature="0"
           style="fill:#f29e9e" /></g><g
         transform="translate(393.57,272.41)"
         id="g1213"><path
           d="m 0,0 c -0.268,-0.109 -0.521,0.303 -0.521,0.303 0,0 -1.48,3.322 -1.989,3.831 -0.909,0.921 -3.054,0.837 -3.224,-2.012 -0.134,-2.206 2.472,-6.911 3.273,-8.292 0.121,-0.219 0.072,-0.51 -0.134,-0.667 -0.085,-0.061 -0.193,-0.097 -0.291,-0.109 h -0.036 c -0.121,0 -0.242,0.036 -0.34,0.121 -1.684,1.479 -9.104,8.595 -3.213,15.287 0,0 4.68,-0.303 5.396,-2.558 C -0.364,3.637 0.146,0.582 0.146,0.582 0.146,0.582 0.278,0.121 0,0"
           id="path1211"
           inkscape:connector-curvature="0"
           style="fill:#483a99" /></g><g
         transform="translate(402.6,279.44)"
         id="g1217"><path
           d="m 0,0 c 0,0 -4.095,3.192 -10.313,-0.697 l -5.093,1.3 c 0,0 -0.214,0.069 -0.101,0.832 0.112,0.762 0.675,8.25 9.595,6.567 C -0.783,7.034 2.358,3.479 0,0"
           id="path1215"
           inkscape:connector-curvature="0"
           style="fill:#483a99" /></g><g
         transform="translate(390.62,263.15)"
         id="g1221"><path
           d="m 0,0 c 0,0 -0.741,-0.413 -1.479,-1.521 0,0 1.012,-0.453 1.894,-0.991 0.806,-0.492 4.676,-3.226 4.676,-3.226 L 6.229,-3.4 c 0,0 -4.041,2.787 -6.229,3.4"
           id="path1219"
           inkscape:connector-curvature="0"
           style="fill:#483a99" /></g><g
         transform="translate(396.85,259.75)"
         id="g1225"><path
           d="m 0,0 c 0,0 1.354,-0.463 1.77,-1.475 0,0 0.693,1.328 -0.193,3.69 0,0 -0.742,0.702 -1.313,0.953 z"
           id="path1223"
           inkscape:connector-curvature="0"
           style="fill:#483a99" /></g><g
         transform="translate(386.09,217.68)"
         id="g1229"><path
           d="m 0,0 c 0,0 0.72,-0.904 0.933,-1.021 0.213,-0.118 0.25,0.132 0.169,0.308 C 1.021,-0.536 0.031,0.238 0,0"
           id="path1227"
           inkscape:connector-curvature="0"
           style="fill:#e5bb98" /></g><g
         transform="translate(390.68,265.47)"
         id="g1233"><path
           d="m 0,0 h -0.036 c -0.121,0 -0.242,0.037 -0.34,0.121 -1.685,1.479 -9.104,8.595 -3.213,15.287 0,0 -0.29,-1.163 -0.169,-2.133 0,0 -3.759,-6.074 3.758,-13.275"
           id="path1231"
           inkscape:connector-curvature="0"
           style="fill:#483a99" /></g><g
         transform="translate(374.2,241.07)"
         id="g1237"><path
           d="m 0,0 c 0,0 -3.938,-18.129 -2.085,-19.514 1.853,-1.383 22.884,-1.591 24.838,-1.907 1.955,-0.314 9.976,-1.615 14.074,1.996 0.529,0.466 -2.493,0.263 -3.205,1.84 -0.713,1.578 0.376,1.396 -0.002,2.061 -1.452,2.547 -9.745,-0.553 -9.745,-0.553 0,0 -13.578,2.347 -17.512,1.224 2.362,2.862 2.902,13.526 2.902,13.526 z"
           id="path1235"
           inkscape:connector-curvature="0"
           style="fill:#ffb9b0" /></g><g
         transform="translate(373.12,240.14)"
         id="g1241"><path
           d="m 0,0 c 0,0 2.64,16.625 7.66,18.863 5.02,2.239 8.57,-4.94 6.723,-12.314 C 12.538,-0.826 12.057,-3.53 12.057,-3.53 12.057,-3.53 4.528,-4.283 0,0"
           id="path1239"
           inkscape:connector-curvature="0"
           style="fill:#483a99" /></g><g
         transform="translate(370.6,136.88)"
         id="g1245"><path
           d="m 0,0 h -3.579 l 2.834,82.052 h 7.157 z"
           id="path1243"
           inkscape:connector-curvature="0"
           style="fill:#e6e7e8" /></g><g
         clip-path="url(#w)"
         id="g1251"
         style="opacity:0.2"><g
           transform="translate(369.5,208.76)"
           id="g1249"><path
             d="M 0,0 H 6.713 L 7.508,10.18 H 0.352 Z"
             id="path1247"
             inkscape:connector-curvature="0" /></g></g><g
         transform="translate(579.53,136.88)"
         id="g1255"><path
           d="M 0,0 H 3.579 L 0.746,82.052 h -7.158 z"
           id="path1253"
           inkscape:connector-curvature="0"
           style="fill:#e6e7e8" /></g><g
         clip-path="url(#v)"
         id="g1261"
         style="opacity:0.2"><g
           transform="translate(580.63,208.76)"
           id="g1259"><path
             d="M 0,0 H -6.714 L -7.51,10.18 h 7.158 z"
             id="path1257"
             inkscape:connector-curvature="0" /></g></g><g
         transform="translate(587.25,215.32)"
         id="g1265"><path
           d="m 0,0 h -224.37 c -1.7,0 -3.078,1.378 -3.078,3.079 v 0.593 c 0,1.7 1.378,3.079 3.078,3.079 H 0 c 1.701,0 3.079,-1.379 3.079,-3.079 V 3.079 C 3.079,1.378 1.701,0 0,0"
           id="path1263"
           inkscape:connector-curvature="0"
           style="fill:#ffe7db" /></g></g><path
       d="m 359.93,217.56 c 0.366,-1.291 1.541,-2.241 2.948,-2.241 h 224.37 c 1.409,0 2.583,0.95 2.949,2.241 z"
       id="path1269"
       inkscape:connector-curvature="0"
       style="fill:url(#b)" /><g
       clip-path="url(#u)"
       id="g1275"><g
         transform="translate(385.47,222.07)"
         id="g1273"><path
           d="M 0,0 H 51.725 V 1.416 H 1.17 C 0.523,1.416 0,0.893 0,0.247 Z"
           id="path1271"
           inkscape:connector-curvature="0"
           style="fill:#9a9fb3" /></g></g><path
       d="m 408.71,245.45 c -1.087,0 -2.107,-0.889 -2.279,-1.984 l -3.366,-21.401 h 34.962 l 3.366,21.401 c 0.173,1.095 -0.569,1.984 -1.656,1.984 z"
       id="path1277"
       inkscape:connector-curvature="0"
       style="fill:url(#a)" /><g
       clip-path="url(#t)"
       id="g1307"><g
         clip-path="url(#s)"
         id="g1283"
         style="opacity:0.2"><g
           transform="translate(408.71,245.45)"
           id="g1281"><path
             d="m 0,0 h 0.951 c -1.087,0 -2.107,-0.889 -2.28,-1.984 l -3.365,-21.402 h -0.952 l 3.367,21.402 C -2.107,-0.889 -1.087,0 0,0"
             id="path1279"
             inkscape:connector-curvature="0"
             style="fill:#212226" /></g></g><g
         clip-path="url(#r)"
         id="g1289"
         style="opacity:0.2"><g
           transform="translate(418.58,233.76)"
           id="g1287"><path
             d="M 0,0 C -0.334,-2.12 1.101,-3.839 3.203,-3.839 5.306,-3.839 7.28,-2.12 7.613,0 7.947,2.121 6.513,3.84 4.41,3.84 2.308,3.84 0.333,2.121 0,0"
             id="path1285"
             inkscape:connector-curvature="0"
             style="fill:#212226" /></g></g><g
         transform="translate(569.32,152.64)"
         id="g1293"><path
           d="M 0,0 0.675,-4.045 H 3.759 L 5.087,-3.817 4.115,2.469 Z"
           id="path1291"
           inkscape:connector-curvature="0"
           style="fill:#ffe1bd" /></g><g
         transform="translate(573.86,153.8)"
         id="g1297"><path
           d="m 0,0 c -0.295,-0.136 -0.607,-0.256 -0.931,-0.369 -1.703,-0.573 -3.998,-0.884 -3.998,-0.884 -3.688,6.051 -13.257,35.524 -13.257,35.524 -0.879,3.722 4.711,-1.045 7.039,-0.903 0.806,0.045 1.572,-0.068 2.145,-0.312 2.225,-0.943 5.488,-7.237 5.488,-7.237 0,0 0.994,-2.173 2.033,-6.669 C -0.442,14.66 0,0 0,0"
           id="path1295"
           inkscape:connector-curvature="0"
           style="fill:#82a7bc" /></g><g
         transform="translate(573.86,153.8)"
         id="g1301"><path
           d="m 0,0 c -0.295,-0.136 -0.607,-0.256 -0.931,-0.369 -0.232,1.794 -0.579,4.654 -1.09,9.212 -1.14,10.217 -7.617,21.914 -9.126,24.525 0.806,0.045 1.572,-0.068 2.145,-0.312 2.225,-0.943 5.488,-7.237 5.488,-7.237 0,0 0.994,-2.173 2.033,-6.669 C -0.442,14.66 0,0 0,0"
           id="path1299"
           inkscape:connector-curvature="0"
           style="fill:#7299aa" /></g><g
         transform="translate(569.79,149.19)"
         id="g1305"><path
           d="m 0,0 c 0,0 1.319,-0.025 2.358,0.362 1.246,0.464 1.986,1.258 1.986,1.258 0,0 3.273,-2 3.269,-5.59 -0.001,-0.186 -0.124,-0.355 -0.3,-0.421 0,0 -7.85,-3.487 -10.551,-4.441 -1.656,-0.585 -4.332,-1.121 -4.332,-1.121 -0.198,-0.044 -0.392,0.027 -0.462,0.208 -0.142,0.365 -0.212,1.004 0.589,1.618 1.216,0.934 2.547,1.695 3.471,2.468 0.923,0.773 1.868,2.905 2.615,3.513 C -0.407,-1.376 0,0 0,0"
           id="path1303"
           inkscape:connector-curvature="0"
           style="fill:#1a1a47" /></g></g><g
       clip-path="url(#q)"
       id="g1339"><g
         transform="translate(586.06,131.34)"
         id="g1311"><path
           d="M 0,0 1.146,61.289 H -2.932 L -1.785,0 c 0.014,-0.621 0.413,-1.125 0.892,-1.125 0.48,0 0.879,0.504 0.893,1.125"
           id="path1309"
           inkscape:connector-curvature="0"
           style="fill:#723e24" /></g><g
         transform="translate(548.59,138.51)"
         id="g1315"><path
           d="M 0,0 23.679,56.541 19.89,58.045 -1.658,0.658 C -1.875,0.075 -1.689,-0.54 -1.244,-0.717 -0.799,-0.894 -0.241,-0.573 0,0"
           id="path1313"
           inkscape:connector-curvature="0"
           style="fill:#723e24" /></g><g
         transform="translate(621.74,138.51)"
         id="g1319"><path
           d="m 0,0 -23.68,56.541 3.79,1.504 L 1.658,0.658 C 1.875,0.075 1.689,-0.54 1.244,-0.717 0.799,-0.894 0.241,-0.573 0,0"
           id="path1317"
           inkscape:connector-curvature="0"
           style="fill:#723e24" /></g><g
         clip-path="url(#p)"
         id="g1325"
         style="opacity:0.37000002"><g
           transform="translate(567.82,194.8)"
           id="g1323"><path
             d="m 0,0 2.411,-0.958 -22.257,-56.006 c 0.253,0.122 0.482,0.356 0.615,0.671 L 4.447,0.248 0.658,1.752 Z"
             id="path1321"
             inkscape:connector-curvature="0" /></g></g><g
         clip-path="url(#o)"
         id="g1331"
         style="opacity:0.37000002"><g
           transform="translate(583.16,191.02)"
           id="g1329"><path
             d="M 0,0 H 3.038 L 1.901,-60.787 c 0.036,-0.006 0.071,-0.014 0.108,-0.014 0.479,0 0.879,0.504 0.892,1.125 L 4.047,1.613 H -0.03 Z"
             id="path1327"
             inkscape:connector-curvature="0" /></g></g><g
         clip-path="url(#n)"
         id="g1337"
         style="opacity:0.37000002"><g
           transform="translate(623.4,139.17)"
           id="g1335"><path
             d="m 0,0 -21.548,57.387 -3.79,-1.504 0.436,-1.04 2.345,0.931 21.424,-57.058 c 0.231,-0.14 0.489,-0.183 0.719,-0.091 C 0.031,-1.198 0.217,-0.583 0,0"
             id="path1333"
             inkscape:connector-curvature="0" /></g></g></g><g
       clip-path="url(#m)"
       id="g1489"><g
         transform="translate(556.45,223.72)"
         id="g1343"><path
           d="m 0,0 h -37.466 l -7.417,23.317 c -0.374,1.175 0.503,2.373 1.736,2.373 h 33.643 c 0.793,0 1.495,-0.513 1.735,-1.268 z"
           id="path1341"
           inkscape:connector-curvature="0"
           style="fill:#ffffff" /></g><g
         transform="translate(555.84,223.72)"
         id="g1347"><path
           d="m 0,0 h -35.872 l -7.347,22.887 c -0.37,1.152 0.498,2.329 1.719,2.329 h 32.087 c 0.785,0 1.48,-0.504 1.719,-1.245 z"
           id="path1345"
           inkscape:connector-curvature="0"
           style="fill:#e1edf9" /></g><g
         transform="translate(533.34,244.61)"
         id="g1351"><path
           d="m 0,0 h -16.344 c -0.243,0 -0.44,0.197 -0.44,0.44 0,0.245 0.197,0.442 0.44,0.442 H 0 C 0.243,0.882 0.44,0.685 0.44,0.44 0.44,0.197 0.243,0 0,0"
           id="path1349"
           inkscape:connector-curvature="0"
           style="fill:#c2e0f2" /></g><g
         transform="translate(535.87,242.57)"
         id="g1355"><path
           d="m 0,0 h -18.225 c -0.243,0 -0.44,0.197 -0.44,0.44 0,0.245 0.197,0.442 0.44,0.442 H 0 C 0.244,0.882 0.441,0.685 0.441,0.44 0.441,0.197 0.244,0 0,0"
           id="path1353"
           inkscape:connector-curvature="0"
           style="fill:#c2e0f2" /></g><g
         transform="translate(534.18,240.54)"
         id="g1359"><path
           d="m 0,0 h -15.872 c -0.244,0 -0.441,0.197 -0.441,0.44 0,0.245 0.197,0.442 0.441,0.442 H 0 C 0.244,0.882 0.441,0.685 0.441,0.44 0.441,0.197 0.244,0 0,0"
           id="path1357"
           inkscape:connector-curvature="0"
           style="fill:#c2e0f2" /></g><g
         transform="translate(531.53,238.5)"
         id="g1363"><path
           d="m 0,0 h -12.58 c -0.243,0 -0.441,0.197 -0.441,0.441 0,0.244 0.198,0.441 0.441,0.441 H 0 C 0.244,0.882 0.441,0.685 0.441,0.441 0.441,0.197 0.244,0 0,0"
           id="path1361"
           inkscape:connector-curvature="0"
           style="fill:#c2e0f2" /></g><g
         transform="translate(537.84,236.46)"
         id="g1367"><path
           d="m 0,0 h -18.225 c -0.243,0 -0.44,0.197 -0.44,0.441 0,0.244 0.197,0.441 0.44,0.441 H 0 C 0.243,0.882 0.44,0.685 0.44,0.441 0.44,0.197 0.243,0 0,0"
           id="path1365"
           inkscape:connector-curvature="0"
           style="fill:#c2e0f2" /></g><g
         transform="translate(536.14,234.42)"
         id="g1371"><path
           d="m 0,0 h -15.873 c -0.243,0 -0.44,0.197 -0.44,0.441 0,0.244 0.197,0.441 0.44,0.441 H 0 C 0.243,0.882 0.44,0.685 0.44,0.441 0.44,0.197 0.243,0 0,0"
           id="path1369"
           inkscape:connector-curvature="0"
           style="fill:#c2e0f2" /></g><g
         transform="translate(539.8,230.35)"
         id="g1375"><path
           d="m 0,0 h -18.225 c -0.243,0 -0.441,0.197 -0.441,0.44 0,0.244 0.198,0.441 0.441,0.441 H 0 C 0.243,0.881 0.44,0.684 0.44,0.44 0.44,0.197 0.243,0 0,0"
           id="path1373"
           inkscape:connector-curvature="0"
           style="fill:#c2e0f2" /></g><g
         transform="translate(540.46,228.31)"
         id="g1379"><path
           d="m 0,0 h -18.225 c -0.243,0 -0.44,0.197 -0.44,0.44 0,0.245 0.197,0.442 0.44,0.442 H 0 C 0.243,0.882 0.44,0.685 0.44,0.44 0.44,0.197 0.243,0 0,0"
           id="path1377"
           inkscape:connector-curvature="0"
           style="fill:#c2e0f2" /></g><g
         transform="translate(550.15,228.31)"
         id="g1383"><path
           d="m 0,0 h -5.887 c -0.549,0 -1.034,0.355 -1.199,0.878 l -4.907,15.533 c -0.257,0.811 0.348,1.637 1.199,1.637 h 5.887 c 0.548,0 1.033,-0.356 1.199,-0.879 L 1.199,1.636 C 1.455,0.825 0.85,0 0,0"
           id="path1381"
           inkscape:connector-curvature="0"
           style="fill:#c2e0f2" /></g><g
         transform="translate(559.59,222.03)"
         id="g1387"><path
           d="m 0,0 h -40.742 c -0.666,0 -1.205,0.539 -1.205,1.205 0,0.665 0.539,1.205 1.205,1.205 H 0 C 0.666,2.41 1.206,1.87 1.206,1.205 1.206,0.539 0.666,0 0,0"
           id="path1385"
           inkscape:connector-curvature="0"
           style="fill:#ffffff" /></g><g
         transform="translate(573.76,260.19)"
         id="g1391"><path
           d="m 0,0 c -0.086,0 -0.174,-0.02 -0.254,-0.063 l -3.773,-1.992 c -0.132,-0.07 -0.229,-0.189 -0.271,-0.332 -0.042,-0.144 -0.024,-0.295 0.05,-0.426 l 1.355,-2.383 c 0.148,-0.259 0.478,-0.353 0.741,-0.211 l 3.704,2.012 c 0.129,0.07 0.222,0.186 0.264,0.327 0.041,0.141 0.026,0.289 -0.045,0.418 L 0.484,-0.286 C 0.385,-0.104 0.195,0 0,0 m -2.411,-5.943 c -0.356,0 -0.703,0.186 -0.89,0.514 l -1.355,2.384 c -0.138,0.242 -0.171,0.522 -0.093,0.789 0.078,0.268 0.257,0.486 0.503,0.616 l 3.772,1.993 c 0.49,0.259 1.106,0.074 1.371,-0.414 L 2.185,-2.425 C 2.315,-2.664 2.345,-2.94 2.268,-3.201 2.19,-3.462 2.016,-3.678 1.776,-3.809 L -1.929,-5.82 c -0.152,-0.083 -0.318,-0.123 -0.482,-0.123"
           id="path1389"
           inkscape:connector-curvature="0"
           style="fill:#483a99" /></g><g
         transform="translate(555.89,229.6)"
         id="g1395"><path
           d="m 0,0 c -0.264,-0.339 -0.476,-0.556 -0.476,-0.556 0,0 -1.975,1.496 -2.525,1.637 -0.546,0.137 -1.722,-0.296 -2.389,-0.334 -0.668,-0.042 -0.724,0.358 -0.724,0.358 0,0 -2.549,-1.063 -2.958,-1.162 -0.414,-0.098 -0.688,0.037 -0.433,0.687 0.056,0.141 0.226,0.367 0.47,0.64 l 0.005,0.004 c 0.87,0.983 2.662,2.554 3.306,2.865 0.823,0.389 1.943,0.959 2.84,0.625 C -1.98,4.43 0.94,2.238 0.94,2.238 1.024,1.485 0.441,0.568 0,0"
           id="path1393"
           inkscape:connector-curvature="0"
           style="fill:#ffe1bd" /></g><g
         transform="translate(556.5,231.71)"
         id="g1399"><path
           d="m 0,0 -0.606,-2.106 c -0.264,-0.339 -0.476,-0.556 -0.476,-0.556 0,0 -1.976,1.496 -2.525,1.637 -0.546,0.136 -1.722,-0.296 -2.389,-0.334 -0.668,-0.042 -0.725,0.358 -0.725,0.358 0,0 -2.549,-1.063 -2.958,-1.162 -0.414,-0.099 -0.687,0.037 -0.432,0.686 0.055,0.141 0.225,0.368 0.469,0.64 -0.215,-0.299 -0.456,-0.607 -0.313,-0.988 0.173,-0.464 2.908,0.841 4.885,2.032 0.031,0.019 0.189,0.098 0.245,0.005 0.036,-0.063 -0.079,-0.19 -0.109,-0.222 -0.329,-0.353 -1.986,-0.477 -1.651,-1.006 0.473,-0.743 2.173,0.621 3.105,0.316 0.931,-0.306 2.097,-1.157 2.097,-1.157 0,0 0.531,1.585 1.383,1.857"
           id="path1397"
           inkscape:connector-curvature="0"
           style="fill:#ffd19f" /></g><g
         transform="translate(555.11,229.04)"
         id="g1403"><path
           d="m 0,0 c 0,0 9.69,-8.476 16.941,-9.338 7.25,-0.861 19.479,12.895 19.479,12.895 0,0 -0.77,7.328 -5.291,6.466 C 26.607,9.162 20.547,-1.734 17.921,-2.244 15.295,-2.753 1.642,3.033 1.642,3.033 1.642,3.033 1.254,2.76 0.797,1.993 0.304,1.166 0,0 0,0"
           id="path1401"
           inkscape:connector-curvature="0"
           style="fill:#2f206b" /></g><g
         transform="translate(588.08,270.81)"
         id="g1407"><path
           d="m 0,0 c -2.651,3.035 -6.571,3.362 -9.598,3.027 -3.972,-0.439 -7.424,-3.118 -8.572,-6.947 -0.495,-1.654 -0.591,-3.59 0.181,-5.721 2.468,-6.82 5.055,-11.17 7.466,-12.463 0.919,-0.494 2.679,-0.165 4.558,0.496 0.247,0.087 0.522,-0.016 0.646,-0.247 l 0.793,-1.484 6.975,1.508 c 0,0 -0.897,1.944 -1.373,3.984 C 2.09,-16.566 4.852,-5.553 0,0"
           id="path1405"
           inkscape:connector-curvature="0"
           style="fill:#ffe1bd" /></g><g
         transform="translate(573.99,261.08)"
         id="g1411"><path
           d="m 0,0 c 0.866,0.068 1.689,-0.388 2.026,-1.19 0.575,-1.365 1.459,-3.274 2.156,-3.895 0.143,-0.128 0.457,-0.171 0.766,-0.007 0.307,0.161 0.368,0.423 0.351,0.595 -0.06,0.589 -0.497,1.868 -0.806,2.718 -0.396,1.089 0.073,2.242 1.374,2.533 0.235,0.053 0.832,0.022 1.135,-0.069 2.061,-0.626 0.642,-3.86 0.6,-5.55 -0.03,-1.19 1.395,-3.95 2.028,-4.198 2.072,-0.813 5.212,-0.079 6.878,1.979 1.666,2.058 2.028,8.936 1.117,13.051 -0.911,4.115 -4.203,6.437 -5.291,6.702 -0.537,0.13 -0.981,0.132 -1.293,0.1 -0.331,-0.034 -0.658,0.079 -0.909,0.297 C 9.035,14.02 5.76,16.2 0.576,13.962 -5.891,11.17 -6.978,5.203 -6.86,2.499 -6.784,0.741 -5.403,0.871 -4.446,1.177 -3.92,1.346 -3.347,1.208 -2.927,0.848 -2.385,0.385 -1.45,-0.115 0,0"
           id="path1409"
           inkscape:connector-curvature="0"
           style="fill:#483a99" /></g><g
         transform="translate(583.34,246.36)"
         id="g1415"><path
           d="M 0,0 C 0,0 -0.601,0.669 -0.372,1.077 -0.09,1.585 2.972,4.007 6.545,3.88 7.101,3.86 7.779,3.86 8.445,2.41 9.112,0.96 9.269,0 9.269,0 Z"
           id="path1413"
           inkscape:connector-curvature="0"
           style="fill:#483a99" /></g><g
         transform="translate(596.94,187.75)"
         id="g1419"><path
           d="m 0,0 c -0.217,-0.052 -0.452,-0.104 -0.696,-0.15 -3.033,-0.565 -7.967,-0.63 -7.967,-0.63 -9.726,0.174 -14.643,9.234 -16.223,11.939 -0.554,0.949 -0.776,1.585 -0.776,1.585 0.556,0.296 7.162,3.859 6.809,16.023 -0.073,2.521 -0.037,8.165 -1.293,10.356 -0.691,1.204 -2.737,3.646 -4.021,6.218 -1.054,2.116 -1.599,4.322 -0.446,6.006 2.859,4.199 7.369,6.433 7.369,6.433 0,0 8.277,3.316 15.327,2.564 4.473,-0.471 8.456,-2.578 9.52,-8.207 C 10.344,37.637 0,0 0,0"
           id="path1417"
           inkscape:connector-curvature="0"
           style="fill:#453087" /></g><g
         transform="translate(580.79,219.7)"
         id="g1423"><path
           d="m 0,0 c 1.202,-11.968 -6.945,-19.504 -8.737,-20.792 -0.555,0.949 -0.777,1.585 -0.777,1.585 0.556,0.296 6.767,5.687 6.81,16.022 0.011,2.523 -0.037,8.165 -1.293,10.357 -0.691,1.204 -2.737,3.645 -4.022,6.218 l 0.546,0.211 3.321,0.55 1.683,-1.373 c 0,0 1.691,-5.025 2.469,-12.778"
           id="path1421"
           inkscape:connector-curvature="0"
           style="fill:#38287c" /></g><g
         transform="translate(596.94,187.75)"
         id="g1427"><path
           d="M 0,0 C -0.217,-0.052 -0.452,-0.104 -0.696,-0.15 -0.075,3.118 3.854,23.646 5.133,31.091 7.658,45.787 5.03,53.232 3.548,55.898 2.351,58.055 0.044,59.196 -1.917,60.344 2.556,59.873 6.539,57.766 7.603,52.137 10.344,37.637 0,0 0,0"
           id="path1425"
           inkscape:connector-curvature="0"
           style="fill:#38287c" /></g><g
         transform="translate(549.22,143.9)"
         id="g1431"><path
           d="m 0,0 c 0,0 -1.027,-0.445 -2.313,-0.445 -1.428,0.001 -1.843,0.534 -1.843,0.534 v 3.257 l 4.705,0.605 z"
           id="path1429"
           inkscape:connector-curvature="0"
           style="fill:#ffe1bd" /></g><g
         transform="translate(586.19,189.44)"
         id="g1435"><path
           d="m 0,0 c -0.028,-2.117 -0.59,-5.494 -3.763,-6.447 -4.734,-1.42 -8.23,-0.614 -13.718,0.334 -4.598,0.789 -16.706,3.395 -18.93,4.241 -0.289,0.108 -0.573,-0.136 -0.517,-0.437 1.05,-5.13 1.89,-7.348 2.571,-15.048 0.571,-6.469 -1.914,-24.779 -1.914,-24.779 0,0 -0.755,-0.232 -1.567,-0.363 -0.307,-0.046 -0.618,-0.079 -0.902,-0.079 -1.193,0 -2.628,0.221 -2.628,0.221 0,0 -4.909,26.965 -5.573,37.891 -0.659,10.927 0.38,11.829 5.346,14.145 4.966,2.315 27.167,1.457 27.167,1.457 l 0.006,-0.006 c 0.063,-0.192 1.311,-3.604 4.994,-6.692 C -7.236,2.594 -4.177,0.868 0,0"
           id="path1433"
           inkscape:connector-curvature="0"
           style="fill:#b1c9dd" /></g><g
         transform="translate(572.68,198.69)"
         id="g1439"><path
           d="m 0,0 c -0.609,1.052 -0.894,1.796 -0.921,1.882 l -0.006,0.006 c 0,0 -0.257,0.009 -0.702,0.024 C -1.177,1.303 -0.643,0.657 0,0"
           id="path1437"
           inkscape:connector-curvature="0"
           style="fill:#33305b" /></g><g
         clip-path="url(#l)"
         id="g1445"
         style="opacity:0.38000028"><g
           transform="translate(583.13,190.29)"
           id="g1443"><path
             d="m 0,0 c -0.446,-1.603 -1.407,-3.165 -3.405,-3.766 -4.734,-1.419 -8.23,-0.613 -13.718,0.335 -4.598,0.789 -16.706,3.395 -18.931,4.241 -0.289,0.108 -0.573,-0.136 -0.516,-0.437 1.049,-5.131 1.889,-7.349 2.57,-15.048 0.445,-5.037 0.256,-21.458 0.149,-28.482 0.372,0.091 0.639,0.171 0.639,0.171 0,0 2.485,18.309 1.914,24.778 -0.681,7.7 -1.52,9.918 -2.57,15.048 -0.057,0.302 0.227,0.546 0.516,0.437 2.225,-0.845 14.332,-3.452 18.93,-4.24 5.489,-0.948 8.985,-1.754 13.719,-0.335 3.173,0.953 3.734,4.33 3.763,6.447 C 1.963,-0.622 0.947,-0.333 0,0"
             id="path1441"
             inkscape:connector-curvature="0"
             style="fill:#61708e" /></g></g><g
         transform="translate(544.99,144.44)"
         id="g1449"><path
           d="M 0,0 C 0,0 1.227,-0.484 2.335,-0.484 3.666,-0.484 4.636,0 4.636,0 c 0,0 2.369,-3.017 1.11,-6.379 -0.065,-0.176 -0.24,-0.29 -0.428,-0.29 h -15.889 c -0.194,0 -0.358,0.151 -0.36,0.345 -0.006,0.391 0.152,1.015 1.117,1.31 1.466,0.45 2.98,0.699 4.115,1.1 1.135,0.402 2.764,2.069 3.678,2.377 C -0.863,-1.146 0,0 0,0"
           id="path1447"
           inkscape:connector-curvature="0"
           style="fill:#1a1a47" /></g><g
         transform="translate(537.78,224.08)"
         id="g1453"><path
           d="M 0,0 C 0,0 -1.414,0.37 -2.147,0.52 -2.44,0.579 -2.711,0.613 -2.932,0.635 -3.24,0.663 -3.556,0.648 -3.863,0.605 l -7.599,-1.051 c -0.219,-0.031 -0.421,0.127 -0.451,0.346 -0.041,0.298 0.07,0.593 0.295,0.786 l 0.742,0.639 2.219,1.912 c 1.098,0.945 1.97,1.115 3.422,1.187 0.273,0.014 1.36,-0.28 1.566,-0.318 C -2.181,3.834 -1.841,3.662 -0.85,3.458 -0.458,3.375 -0.192,3.34 -0.02,3.326 0.25,3.307 0.312,3.339 0.312,3.339 0.841,1.437 0,0 0,0"
           id="path1451"
           inkscape:connector-curvature="0"
           style="fill:#ffe1bd" /></g><g
         transform="translate(549.38,223.32)"
         id="g1457"><path
           d="m 0,0 c -0.012,-0.016 -0.027,-0.021 -0.046,-0.013 -0.194,0.08 -1.382,0.57 -2.027,0.798 -0.239,0.083 -0.464,0.147 -0.658,0.195 -0.281,0.071 -0.747,0.124 -1.036,0.124 h -7.625 c -0.235,0 -0.445,0.186 -0.44,0.421 0.005,0.295 0.154,0.566 0.399,0.722 l 0.824,0.532 c -0.779,-0.591 -0.905,-1.037 -0.514,-1.085 0.311,-0.037 1.051,0.045 2.922,0.566 0.042,0.011 0.058,-0.054 0.021,-0.077 -0.43,-0.264 -0.27,-0.818 0.26,-0.792 0.315,0.015 1.652,0.1 1.96,0.118 1.195,0.068 2.938,0.18 3.272,0.119 0.677,-0.124 1.194,-0.329 1.676,-0.58 0.327,-0.17 0.639,0.203 0.758,0.552 0.17,0.496 0.417,1.167 0.673,1.672 C 0.683,3.216 0.748,3.239 0.748,3.239 0.991,1.437 0.136,0.186 0,0"
           id="path1455"
           inkscape:connector-curvature="0"
           style="fill:#f4f4f4" /></g><g
         transform="translate(579.39,241.62)"
         id="g1461"><path
           d="m 0,0 c -1.005,0.613 -4.045,2.302 -7.965,-3.811 -3.919,-6.112 -7.054,-10.698 -8.426,-11.52 -1.371,-0.823 -4.742,-0.235 -5.957,-0.235 -1.214,0 -19.002,1.387 -19.002,1.387 0,0 -0.852,-1.838 -0.999,-3.425 0,0 16.297,-4.272 26.4,-4.311 C -5.848,-21.955 1.834,-6.67 2.187,-4.828 2.539,-2.985 2.402,-1.467 0,0"
           id="path1459"
           inkscape:connector-curvature="0"
           style="fill:#453087" /></g><g
         transform="translate(569.64,255.85)"
         id="g1465"><path
           d="m 0,0 c -0.086,0 -0.168,0.046 -0.21,0.128 -0.06,0.115 -0.014,0.257 0.103,0.316 L 8.655,4.936 C 9.647,5.444 11.677,6.483 13.185,4.273 13.257,4.166 13.229,4.019 13.122,3.946 13.016,3.874 12.869,3.9 12.796,4.008 11.621,5.732 10.22,5.209 8.887,4.525 L 0.107,0.026 C 0.072,0.008 0.036,0 0,0"
           id="path1463"
           inkscape:connector-curvature="0"
           style="fill:#483a99" /></g><g
         transform="translate(578.44,260.23)"
         id="g1469"><path
           d="m 0,0 1.059,-3.38 c 0,0 0.823,-0.796 1.616,0.117 0.794,0.914 1.484,4.086 0.029,4.615 C 1.249,1.881 0.368,1.132 0,0"
           id="path1467"
           inkscape:connector-curvature="0"
           style="fill:#ffe1bd" /></g><g
         transform="translate(618.27,211.28)"
         id="g1473"><path
           d="m 0,0 c 0,17.07 -0.401,29.1 -11.214,30.909 -14.713,2.462 -26.22,-10.276 -23.865,-34.681 1.35,-13.986 -4.385,-18.785 -9.269,-21.516 -3.157,-1.767 -9.27,-1.388 -9.27,-1.388 0,0 -2.831,0.336 -4.732,0.515 1.176,-0.542 26.366,-12.955 44.339,-3.783 C 1.922,-21.815 0,-10.042 0,0"
           id="path1471"
           inkscape:connector-curvature="0"
           style="fill:#e8f6f7" /></g><g
         transform="translate(618.27,211.28)"
         id="g1477"><path
           d="m 0,0 c 0,17.07 -0.401,29.1 -11.214,30.909 -0.519,0.087 -1.035,0.153 -1.547,0.202 -11.786,-1.167 -19.51,-13.581 -17.453,-34.891 1.349,-13.985 -4.386,-18.784 -9.268,-21.516 -3.159,-1.766 -9.271,-1.387 -9.271,-1.387 0,0 -0.143,0.045 -0.406,0.123 -2.368,-0.245 -4.459,-0.116 -4.459,-0.116 0,0 -2.831,0.336 -4.732,0.515 1.176,-0.542 26.366,-12.955 44.339,-3.783 C 1.922,-21.815 0,-10.042 0,0"
           id="path1475"
           inkscape:connector-curvature="0"
           style="fill:#d0e0e2" /></g><g
         clip-path="url(#k)"
         id="g1483"
         style="opacity:0.36000001"><g
           transform="translate(486.74,322.72)"
           id="g1481"><path
             d="m 0,0 h -1.26 c 0.328,0.159 0.654,0.325 0.973,0.499 C -0.194,0.331 -0.098,0.166 0,0 m 44.808,13.223 c -2.037,0 -3.958,-0.473 -5.681,-1.296 -0.675,11.004 -9.809,19.722 -20.982,19.722 -2.692,0 -5.263,-0.511 -7.628,-1.433 -3.492,8.835 -12.102,15.089 -22.179,15.089 -12.878,0 -23.366,-10.211 -23.823,-22.978 -0.007,0 -0.014,10e-4 -0.022,10e-4 -9.817,0 -17.775,-7.959 -17.775,-17.776 0,-9.817 7.958,-17.775 17.775,-17.775 h 80.315 c 7.302,0 13.222,5.92 13.222,13.223 0,7.303 -5.92,13.223 -13.222,13.223"
             id="path1479"
             inkscape:connector-curvature="0"
             style="fill:#2249c6" /></g></g><g
         transform="translate(481.91,327.08)"
         id="g1487"><path
           d="m 0,0 h -1.259 c 0.328,0.159 0.653,0.325 0.972,0.499 C -0.194,0.331 -0.097,0.166 0,0 m 44.808,13.223 c -2.037,0 -3.957,-0.473 -5.681,-1.296 -0.675,11.004 -9.809,19.722 -20.982,19.722 -2.692,0 -5.262,-0.511 -7.628,-1.433 -3.492,8.835 -12.102,15.089 -22.179,15.089 -12.878,0 -23.365,-10.211 -23.822,-22.978 -0.008,0 -0.015,10e-4 -0.023,10e-4 -9.816,0 -17.775,-7.959 -17.775,-17.776 0,-9.817 7.959,-17.775 17.775,-17.775 h 80.315 c 7.302,0 13.222,5.92 13.222,13.223 0,7.303 -5.92,13.223 -13.222,13.223"
           id="path1485"
           inkscape:connector-curvature="0"
           style="fill:#ffffff" /></g></g><g
       clip-path="url(#j)"
       id="g1689"><g
         clip-path="url(#i)"
         id="g1687"
         style="opacity:0.37000002"><g
           clip-path="url(#h)"
           id="g1571"><g
             transform="translate(465.58,364.12)"
             id="g1493"><path
               d="m 0,0 c -0.792,0 -1.32,0.846 -1.32,2.824 0,1.977 0.528,2.781 1.32,2.781 0.782,0 1.311,-0.804 1.311,-2.781 C 1.311,0.846 0.782,0 0,0 m 0,6.302 c -1.353,0 -2.166,-1.216 -2.166,-3.478 0,-2.263 0.813,-3.52 2.166,-3.52 1.342,0 2.156,1.257 2.156,3.52 0,2.262 -0.814,3.478 -2.156,3.478"
               id="path1491"
               inkscape:connector-curvature="0"
               style="fill:#b0b2cc" /></g><g
             transform="translate(477.75,370.29)"
             id="g1497"><path
               d="m 0,0 h -0.666 c -0.368,-0.222 -0.813,-0.392 -1.428,-0.498 v -0.56 h 1.228 V -6.027 H -2.41 v -0.719 h 3.805 v 0.719 H 0 Z"
               id="path1495"
               inkscape:connector-curvature="0"
               style="fill:#b0b2cc" /></g><g
             transform="translate(454.23,352.22)"
             id="g1501"><path
               d="M 0,0 C -0.793,0 -1.321,0.846 -1.321,2.822 -1.321,4.8 -0.793,5.604 0,5.604 0.781,5.604 1.311,4.8 1.311,2.822 1.311,0.846 0.781,0 0,0 m 0,6.302 c -1.353,0 -2.167,-1.218 -2.167,-3.48 0,-2.262 0.814,-3.52 2.167,-3.52 1.341,0 2.154,1.258 2.154,3.52 0,2.262 -0.813,3.48 -2.154,3.48"
               id="path1499"
               inkscape:connector-curvature="0"
               style="fill:#b0b2cc" /></g><g
             transform="translate(466.19,358.39)"
             id="g1505"><path
               d="m 0,0 h -0.665 c -0.37,-0.222 -0.814,-0.39 -1.426,-0.497 v -0.56 h 1.225 v -4.969 h -1.543 v -0.72 h 3.805 v 0.72 H 0 Z"
               id="path1503"
               inkscape:connector-curvature="0"
               style="fill:#b0b2cc" /></g><g
             transform="translate(477.14,352.22)"
             id="g1509"><path
               d="M 0,0 C -0.793,0 -1.321,0.846 -1.321,2.822 -1.321,4.8 -0.793,5.604 0,5.604 0.781,5.604 1.311,4.8 1.311,2.822 1.311,0.846 0.781,0 0,0 m 0,6.302 c -1.353,0 -2.167,-1.218 -2.167,-3.48 0,-2.262 0.814,-3.52 2.167,-3.52 1.342,0 2.154,1.258 2.154,3.52 0,2.262 -0.812,3.48 -2.154,3.48"
               id="path1507"
               inkscape:connector-curvature="0"
               style="fill:#b0b2cc" /></g><g
             transform="translate(442.56,340.32)"
             id="g1513"><path
               d="M 0,0 C -0.793,0 -1.321,0.846 -1.321,2.822 -1.321,4.8 -0.793,5.603 0,5.603 0.781,5.603 1.311,4.8 1.311,2.822 1.311,0.846 0.781,0 0,0 m 0,6.302 c -1.353,0 -2.167,-1.218 -2.167,-3.48 0,-2.262 0.814,-3.521 2.167,-3.521 1.342,0 2.154,1.259 2.154,3.521 0,2.262 -0.812,3.48 -2.154,3.48"
               id="path1511"
               inkscape:connector-curvature="0"
               style="fill:#b0b2cc" /></g><g
             transform="translate(454.85,346.49)"
             id="g1517"><path
               d="m 0,0 h -0.665 c -0.369,-0.222 -0.814,-0.391 -1.427,-0.497 v -0.561 h 1.226 v -4.969 h -1.542 v -0.719 h 3.803 v 0.719 H 0 Z"
               id="path1515"
               inkscape:connector-curvature="0"
               style="fill:#b0b2cc" /></g><g
             transform="translate(431.77,340.32)"
             id="g1521"><path
               d="M 0,0 C -0.792,0 -1.32,0.846 -1.32,2.822 -1.32,4.8 -0.792,5.603 0,5.603 0.782,5.603 1.31,4.8 1.31,2.822 1.31,0.846 0.782,0 0,0 m 0,6.302 c -1.353,0 -2.166,-1.218 -2.166,-3.48 0,-2.262 0.813,-3.521 2.166,-3.521 1.342,0 2.156,1.259 2.156,3.521 0,2.262 -0.814,3.48 -2.156,3.48"
               id="path1519"
               inkscape:connector-curvature="0"
               style="fill:#b0b2cc" /></g><g
             transform="translate(465.58,340.32)"
             id="g1525"><path
               d="M 0,0 C -0.792,0 -1.32,0.846 -1.32,2.822 -1.32,4.8 -0.792,5.603 0,5.603 0.782,5.603 1.311,4.8 1.311,2.822 1.311,0.846 0.782,0 0,0 m 0,6.302 c -1.353,0 -2.166,-1.218 -2.166,-3.48 0,-2.262 0.813,-3.521 2.166,-3.521 1.342,0 2.156,1.259 2.156,3.521 0,2.262 -0.814,3.48 -2.156,3.48"
               id="path1523"
               inkscape:connector-curvature="0"
               style="fill:#b0b2cc" /></g><g
             transform="translate(477.75,346.49)"
             id="g1529"><path
               d="m 0,0 h -0.666 c -0.368,-0.222 -0.813,-0.391 -1.428,-0.497 v -0.561 h 1.228 V -6.027 H -2.41 v -0.719 h 3.805 v 0.719 H 0 Z"
               id="path1527"
               inkscape:connector-curvature="0"
               style="fill:#b0b2cc" /></g><g
             transform="translate(443.17,334.59)"
             id="g1533"><path
               d="m 0,0 h -0.666 c -0.369,-0.222 -0.813,-0.393 -1.428,-0.498 v -0.561 h 1.227 V -6.028 H -2.41 v -0.718 h 3.805 v 0.718 H 0 Z"
               id="path1531"
               inkscape:connector-curvature="0"
               style="fill:#b0b2cc" /></g><g
             transform="translate(454.85,334.59)"
             id="g1537"><path
               d="m 0,0 h -0.665 c -0.369,-0.222 -0.814,-0.393 -1.427,-0.498 v -0.561 h 1.226 v -4.969 h -1.542 v -0.718 h 3.803 v 0.718 H 0 Z"
               id="path1535"
               inkscape:connector-curvature="0"
               style="fill:#b0b2cc" /></g><g
             transform="translate(431.77,328.42)"
             id="g1541"><path
               d="m 0,0 c -0.792,0 -1.32,0.846 -1.32,2.824 0,1.977 0.528,2.78 1.32,2.78 0.782,0 1.31,-0.803 1.31,-2.78 C 1.31,0.846 0.782,0 0,0 m 0,6.301 c -1.353,0 -2.166,-1.215 -2.166,-3.477 0,-2.263 0.813,-3.522 2.166,-3.522 1.342,0 2.156,1.259 2.156,3.522 0,2.262 -0.814,3.477 -2.156,3.477"
               id="path1539"
               inkscape:connector-curvature="0"
               style="fill:#b0b2cc" /></g><g
             transform="translate(465.58,328.42)"
             id="g1545"><path
               d="m 0,0 c -0.792,0 -1.32,0.846 -1.32,2.824 0,1.977 0.528,2.78 1.32,2.78 0.782,0 1.311,-0.803 1.311,-2.78 C 1.311,0.846 0.782,0 0,0 m 0,6.301 c -1.353,0 -2.166,-1.215 -2.166,-3.477 0,-2.263 0.813,-3.522 2.166,-3.522 1.342,0 2.156,1.259 2.156,3.522 0,2.262 -0.814,3.477 -2.156,3.477"
               id="path1543"
               inkscape:connector-curvature="0"
               style="fill:#b0b2cc" /></g><g
             transform="translate(477.14,328.42)"
             id="g1549"><path
               d="m 0,0 c -0.793,0 -1.321,0.846 -1.321,2.824 0,1.977 0.528,2.78 1.321,2.78 0.781,0 1.311,-0.803 1.311,-2.78 C 1.311,0.846 0.781,0 0,0 m 0,6.301 c -1.353,0 -2.167,-1.215 -2.167,-3.477 0,-2.263 0.814,-3.522 2.167,-3.522 1.342,0 2.154,1.259 2.154,3.522 0,2.262 -0.812,3.477 -2.154,3.477"
               id="path1547"
               inkscape:connector-curvature="0"
               style="fill:#b0b2cc" /></g><g
             transform="translate(443.17,322.69)"
             id="g1553"><path
               d="m 0,0 h -0.666 c -0.369,-0.222 -0.813,-0.393 -1.428,-0.498 v -0.561 h 1.227 V -6.028 H -2.41 v -0.718 h 3.805 v 0.718 H 0 Z"
               id="path1551"
               inkscape:connector-curvature="0"
               style="fill:#b0b2cc" /></g><g
             transform="translate(454.23,316.51)"
             id="g1557"><path
               d="m 0,0 c -0.793,0 -1.321,0.847 -1.321,2.824 0,1.978 0.528,2.78 1.321,2.78 0.781,0 1.311,-0.802 1.311,-2.78 C 1.311,0.847 0.781,0 0,0 m 0,6.302 c -1.353,0 -2.167,-1.215 -2.167,-3.478 0,-2.262 0.814,-3.521 2.167,-3.521 1.341,0 2.154,1.259 2.154,3.521 0,2.263 -0.813,3.478 -2.154,3.478"
               id="path1555"
               inkscape:connector-curvature="0"
               style="fill:#b0b2cc" /></g><g
             transform="translate(431.77,316.51)"
             id="g1561"><path
               d="m 0,0 c -0.792,0 -1.32,0.847 -1.32,2.824 0,1.978 0.528,2.78 1.32,2.78 0.782,0 1.31,-0.802 1.31,-2.78 C 1.31,0.847 0.782,0 0,0 m 0,6.302 c -1.353,0 -2.166,-1.215 -2.166,-3.478 0,-2.262 0.813,-3.521 2.166,-3.521 1.342,0 2.156,1.259 2.156,3.521 0,2.263 -0.814,3.478 -2.156,3.478"
               id="path1559"
               inkscape:connector-curvature="0"
               style="fill:#b0b2cc" /></g><g
             transform="translate(465.58,316.51)"
             id="g1565"><path
               d="m 0,0 c -0.792,0 -1.32,0.847 -1.32,2.824 0,1.978 0.528,2.78 1.32,2.78 0.782,0 1.311,-0.802 1.311,-2.78 C 1.311,0.847 0.782,0 0,0 m 0,6.302 c -1.353,0 -2.166,-1.215 -2.166,-3.478 0,-2.262 0.813,-3.521 2.166,-3.521 1.342,0 2.156,1.259 2.156,3.521 0,2.263 -0.814,3.478 -2.156,3.478"
               id="path1563"
               inkscape:connector-curvature="0"
               style="fill:#b0b2cc" /></g><g
             transform="translate(477.75,322.69)"
             id="g1569"><path
               d="m 0,0 h -0.666 c -0.368,-0.222 -0.813,-0.393 -1.428,-0.498 v -0.561 h 1.228 V -6.028 H -2.41 v -0.718 h 3.805 v 0.718 H 0 Z"
               id="path1567"
               inkscape:connector-curvature="0"
               style="fill:#b0b2cc" /></g></g><g
           clip-path="url(#g)"
           id="g1685"><g
             transform="translate(487.96,370.29)"
             id="g1575"><path
               d="m 0,0 h -0.666 c -0.37,-0.222 -0.814,-0.392 -1.428,-0.498 v -0.56 h 1.227 v -4.969 h -1.544 v -0.719 h 3.806 v 0.719 H 0 Z"
               id="path1573"
               inkscape:connector-curvature="0"
               style="fill:#b0b2cc" /></g><g
             transform="translate(509.77,370.29)"
             id="g1579"><path
               d="m 0,0 h -0.666 c -0.37,-0.222 -0.814,-0.392 -1.426,-0.498 v -0.56 h 1.225 V -6.027 H -2.41 v -0.719 h 3.805 v 0.719 H 0 Z"
               id="path1577"
               inkscape:connector-curvature="0"
               style="fill:#b0b2cc" /></g><g
             transform="translate(521.44,370.29)"
             id="g1583"><path
               d="m 0,0 h -0.666 c -0.37,-0.222 -0.814,-0.392 -1.428,-0.498 v -0.56 h 1.227 v -4.969 h -1.544 v -0.719 h 3.806 v 0.719 H 0 Z"
               id="path1581"
               inkscape:connector-curvature="0"
               style="fill:#b0b2cc" /></g><g
             transform="translate(498.36,364.12)"
             id="g1587"><path
               d="m 0,0 c -0.794,0 -1.321,0.846 -1.321,2.824 0,1.977 0.527,2.781 1.321,2.781 0.781,0 1.311,-0.804 1.311,-2.781 C 1.311,0.846 0.781,0 0,0 m 0,6.302 c -1.353,0 -2.167,-1.216 -2.167,-3.478 0,-2.263 0.814,-3.52 2.167,-3.52 1.342,0 2.154,1.257 2.154,3.52 0,2.262 -0.812,3.478 -2.154,3.478"
               id="path1585"
               inkscape:connector-curvature="0"
               style="fill:#b0b2cc" /></g><g
             transform="translate(532.17,364.12)"
             id="g1591"><path
               d="m 0,0 c -0.794,0 -1.321,0.846 -1.321,2.824 0,1.977 0.527,2.781 1.321,2.781 0.781,0 1.311,-0.804 1.311,-2.781 C 1.311,0.846 0.781,0 0,0 m 0,6.302 c -1.354,0 -2.167,-1.216 -2.167,-3.478 0,-2.263 0.813,-3.52 2.167,-3.52 1.342,0 2.154,1.257 2.154,3.52 0,2.262 -0.812,3.478 -2.154,3.478"
               id="path1589"
               inkscape:connector-curvature="0"
               style="fill:#b0b2cc" /></g><g
             transform="translate(544.35,370.29)"
             id="g1595"><path
               d="m 0,0 h -0.666 c -0.37,-0.222 -0.814,-0.392 -1.426,-0.498 v -0.56 h 1.225 v -4.969 h -1.542 v -0.719 h 3.804 v 0.719 H 0 Z"
               id="path1593"
               inkscape:connector-curvature="0"
               style="fill:#b0b2cc" /></g><g
             transform="translate(487.35,352.22)"
             id="g1599"><path
               d="M 0,0 C -0.791,0 -1.319,0.846 -1.319,2.822 -1.319,4.8 -0.791,5.604 0,5.604 0.783,5.604 1.311,4.8 1.311,2.822 1.311,0.846 0.783,0 0,0 m 0,6.302 c -1.353,0 -2.165,-1.218 -2.165,-3.48 0,-2.262 0.812,-3.52 2.165,-3.52 1.344,0 2.156,1.258 2.156,3.52 0,2.262 -0.812,3.48 -2.156,3.48"
               id="path1597"
               inkscape:connector-curvature="0"
               style="fill:#b0b2cc" /></g><g
             transform="translate(509.77,358.39)"
             id="g1603"><path
               d="m 0,0 h -0.666 c -0.37,-0.222 -0.814,-0.39 -1.426,-0.497 v -0.56 h 1.225 V -6.026 H -2.41 v -0.72 h 3.805 v 0.72 H 0 Z"
               id="path1601"
               inkscape:connector-curvature="0"
               style="fill:#b0b2cc" /></g><g
             transform="translate(520.83,352.22)"
             id="g1607"><path
               d="M 0,0 C -0.791,0 -1.319,0.846 -1.319,2.822 -1.319,4.8 -0.791,5.604 0,5.604 0.783,5.604 1.311,4.8 1.311,2.822 1.311,0.846 0.783,0 0,0 m 0,6.302 c -1.352,0 -2.165,-1.218 -2.165,-3.48 0,-2.262 0.813,-3.52 2.165,-3.52 1.344,0 2.156,1.258 2.156,3.52 0,2.262 -0.812,3.48 -2.156,3.48"
               id="path1605"
               inkscape:connector-curvature="0"
               style="fill:#b0b2cc" /></g><g
             transform="translate(498.36,352.22)"
             id="g1611"><path
               d="M 0,0 C -0.794,0 -1.321,0.846 -1.321,2.822 -1.321,4.8 -0.794,5.604 0,5.604 0.781,5.604 1.311,4.8 1.311,2.822 1.311,0.846 0.781,0 0,0 m 0,6.302 c -1.353,0 -2.167,-1.218 -2.167,-3.48 0,-2.262 0.814,-3.52 2.167,-3.52 1.342,0 2.154,1.258 2.154,3.52 0,2.262 -0.812,3.48 -2.154,3.48"
               id="path1609"
               inkscape:connector-curvature="0"
               style="fill:#b0b2cc" /></g><g
             transform="translate(532.78,358.39)"
             id="g1615"><path
               d="m 0,0 h -0.666 c -0.369,-0.222 -0.813,-0.39 -1.428,-0.497 v -0.56 h 1.227 V -6.026 H -2.41 v -0.72 h 3.805 v 0.72 H 0 Z"
               id="path1613"
               inkscape:connector-curvature="0"
               style="fill:#b0b2cc" /></g><g
             transform="translate(543.73,352.22)"
             id="g1619"><path
               d="M 0,0 C -0.792,0 -1.319,0.846 -1.319,2.822 -1.319,4.8 -0.792,5.604 0,5.604 0.782,5.604 1.311,4.8 1.311,2.822 1.311,0.846 0.782,0 0,0 m 0,6.302 c -1.353,0 -2.165,-1.218 -2.165,-3.48 0,-2.262 0.812,-3.52 2.165,-3.52 1.342,0 2.156,1.258 2.156,3.52 0,2.262 -0.814,3.48 -2.156,3.48"
               id="path1617"
               inkscape:connector-curvature="0"
               style="fill:#b0b2cc" /></g><g
             transform="translate(487.96,346.49)"
             id="g1623"><path
               d="m 0,0 h -0.666 c -0.37,-0.222 -0.814,-0.391 -1.428,-0.497 v -0.561 h 1.227 v -4.969 h -1.544 v -0.719 h 3.806 v 0.719 H 0 Z"
               id="path1621"
               inkscape:connector-curvature="0"
               style="fill:#b0b2cc" /></g><g
             transform="translate(509.15,340.32)"
             id="g1627"><path
               d="M 0,0 C -0.792,0 -1.319,0.846 -1.319,2.822 -1.319,4.8 -0.792,5.603 0,5.603 0.782,5.603 1.311,4.8 1.311,2.822 1.311,0.846 0.782,0 0,0 m 0,6.302 c -1.353,0 -2.166,-1.218 -2.166,-3.48 0,-2.262 0.813,-3.521 2.166,-3.521 1.342,0 2.156,1.259 2.156,3.521 0,2.262 -0.814,3.48 -2.156,3.48"
               id="path1625"
               inkscape:connector-curvature="0"
               style="fill:#b0b2cc" /></g><g
             transform="translate(521.44,346.49)"
             id="g1631"><path
               d="m 0,0 h -0.666 c -0.37,-0.222 -0.814,-0.391 -1.428,-0.497 v -0.561 h 1.227 v -4.969 h -1.544 v -0.719 h 3.806 v 0.719 H 0 Z"
               id="path1629"
               inkscape:connector-curvature="0"
               style="fill:#b0b2cc" /></g><g
             transform="translate(498.36,340.32)"
             id="g1635"><path
               d="M 0,0 C -0.794,0 -1.321,0.846 -1.321,2.822 -1.321,4.8 -0.794,5.603 0,5.603 0.781,5.603 1.311,4.8 1.311,2.822 1.311,0.846 0.781,0 0,0 m 0,6.302 c -1.353,0 -2.167,-1.218 -2.167,-3.48 0,-2.262 0.814,-3.521 2.167,-3.521 1.342,0 2.154,1.259 2.154,3.521 0,2.262 -0.812,3.48 -2.154,3.48"
               id="path1633"
               inkscape:connector-curvature="0"
               style="fill:#b0b2cc" /></g><g
             transform="translate(544.35,346.49)"
             id="g1639"><path
               d="m 0,0 h -0.666 c -0.37,-0.222 -0.814,-0.391 -1.426,-0.497 v -0.561 h 1.225 v -4.969 h -1.542 v -0.719 h 3.804 v 0.719 H 0 Z"
               id="path1637"
               inkscape:connector-curvature="0"
               style="fill:#b0b2cc" /></g><g
             transform="translate(487.35,328.42)"
             id="g1643"><path
               d="m 0,0 c -0.791,0 -1.319,0.846 -1.319,2.824 0,1.977 0.528,2.78 1.319,2.78 0.783,0 1.311,-0.803 1.311,-2.78 C 1.311,0.846 0.783,0 0,0 m 0,6.301 c -1.353,0 -2.165,-1.215 -2.165,-3.477 0,-2.263 0.812,-3.522 2.165,-3.522 1.344,0 2.156,1.259 2.156,3.522 0,2.262 -0.812,3.477 -2.156,3.477"
               id="path1641"
               inkscape:connector-curvature="0"
               style="fill:#b0b2cc" /></g><g
             transform="translate(509.77,334.59)"
             id="g1647"><path
               d="m 0,0 h -0.666 c -0.37,-0.222 -0.814,-0.393 -1.426,-0.498 v -0.561 h 1.225 V -6.028 H -2.41 v -0.718 h 3.805 v 0.718 H 0 Z"
               id="path1645"
               inkscape:connector-curvature="0"
               style="fill:#b0b2cc" /></g><g
             transform="translate(521.44,334.59)"
             id="g1651"><path
               d="m 0,0 h -0.666 c -0.37,-0.222 -0.814,-0.393 -1.428,-0.498 v -0.561 h 1.227 v -4.969 h -1.544 v -0.718 h 3.806 v 0.718 H 0 Z"
               id="path1649"
               inkscape:connector-curvature="0"
               style="fill:#b0b2cc" /></g><g
             transform="translate(498.36,328.42)"
             id="g1655"><path
               d="m 0,0 c -0.794,0 -1.321,0.846 -1.321,2.824 0,1.977 0.527,2.78 1.321,2.78 0.781,0 1.311,-0.803 1.311,-2.78 C 1.311,0.846 0.781,0 0,0 m 0,6.301 c -1.353,0 -2.167,-1.215 -2.167,-3.477 0,-2.263 0.814,-3.522 2.167,-3.522 1.342,0 2.154,1.259 2.154,3.522 0,2.262 -0.812,3.477 -2.154,3.477"
               id="path1653"
               inkscape:connector-curvature="0"
               style="fill:#b0b2cc" /></g><g
             transform="translate(532.17,328.42)"
             id="g1659"><path
               d="m 0,0 c -0.794,0 -1.321,0.846 -1.321,2.824 0,1.977 0.527,2.78 1.321,2.78 0.781,0 1.311,-0.803 1.311,-2.78 C 1.311,0.846 0.781,0 0,0 m 0,6.301 c -1.354,0 -2.167,-1.215 -2.167,-3.477 0,-2.263 0.813,-3.522 2.167,-3.522 1.342,0 2.154,1.259 2.154,3.522 0,2.262 -0.812,3.477 -2.154,3.477"
               id="path1657"
               inkscape:connector-curvature="0"
               style="fill:#b0b2cc" /></g><g
             transform="translate(543.73,328.42)"
             id="g1663"><path
               d="m 0,0 c -0.792,0 -1.319,0.846 -1.319,2.824 0,1.977 0.527,2.78 1.319,2.78 0.782,0 1.311,-0.803 1.311,-2.78 C 1.311,0.846 0.782,0 0,0 m 0,6.301 c -1.353,0 -2.165,-1.215 -2.165,-3.477 0,-2.263 0.812,-3.522 2.165,-3.522 1.342,0 2.156,1.259 2.156,3.522 0,2.262 -0.814,3.477 -2.156,3.477"
               id="path1661"
               inkscape:connector-curvature="0"
               style="fill:#b0b2cc" /></g><g
             transform="translate(487.96,322.69)"
             id="g1667"><path
               d="m 0,0 h -0.666 c -0.37,-0.222 -0.814,-0.393 -1.428,-0.498 v -0.561 h 1.227 v -4.969 h -1.544 v -0.718 h 3.806 v 0.718 H 0 Z"
               id="path1665"
               inkscape:connector-curvature="0"
               style="fill:#b0b2cc" /></g><g
             transform="translate(509.77,322.69)"
             id="g1671"><path
               d="m 0,0 h -0.666 c -0.37,-0.222 -0.814,-0.393 -1.426,-0.498 v -0.561 h 1.225 V -6.028 H -2.41 v -0.718 h 3.805 v 0.718 H 0 Z"
               id="path1669"
               inkscape:connector-curvature="0"
               style="fill:#b0b2cc" /></g><g
             transform="translate(520.83,316.51)"
             id="g1675"><path
               d="m 0,0 c -0.791,0 -1.319,0.847 -1.319,2.824 0,1.978 0.528,2.78 1.319,2.78 0.783,0 1.311,-0.802 1.311,-2.78 C 1.311,0.847 0.783,0 0,0 m 0,6.302 c -1.352,0 -2.165,-1.215 -2.165,-3.478 0,-2.262 0.813,-3.521 2.165,-3.521 1.344,0 2.156,1.259 2.156,3.521 0,2.263 -0.812,3.478 -2.156,3.478"
               id="path1673"
               inkscape:connector-curvature="0"
               style="fill:#b0b2cc" /></g><g
             transform="translate(498.36,316.51)"
             id="g1679"><path
               d="m 0,0 c -0.794,0 -1.321,0.847 -1.321,2.824 0,1.978 0.527,2.78 1.321,2.78 0.781,0 1.311,-0.802 1.311,-2.78 C 1.311,0.847 0.781,0 0,0 m 0,6.302 c -1.353,0 -2.167,-1.215 -2.167,-3.478 0,-2.262 0.814,-3.521 2.167,-3.521 1.342,0 2.154,1.259 2.154,3.521 0,2.263 -0.812,3.478 -2.154,3.478"
               id="path1677"
               inkscape:connector-curvature="0"
               style="fill:#b0b2cc" /></g><g
             transform="translate(534.19,322.69)"
             id="g1683"><path
               d="m 0,0 h -0.665 c -0.371,-0.222 -0.814,-0.393 -1.427,-0.498 v -0.561 h 1.226 v -4.969 h -1.543 v -0.718 h 3.804 v 0.718 H 0 Z"
               id="path1681"
               inkscape:connector-curvature="0"
               style="fill:#b0b2cc" /></g></g></g></g><g
       clip-path="url(#f)"
       id="g1747"><g
         transform="translate(477.6,312.42)"
         id="g1693"><path
           d="M 0,0 V -60.73"
           id="path1691"
           inkscape:connector-curvature="0"
           style="fill:#b0b2cc" /></g><g
         transform="translate(477.6,312.42)"
         id="g1697"><path
           d="M 0,0 V -1"
           id="path1695"
           inkscape:connector-curvature="0"
           style="fill:none;stroke:#81a7e2;stroke-linecap:round;stroke-linejoin:round" /></g><g
         transform="translate(477.6,308.39)"
         id="g1701"><path
           d="M 0,0 V -54.173"
           id="path1699"
           inkscape:connector-curvature="0"
           style="fill:none;stroke:#81a7e2;stroke-linecap:round;stroke-linejoin:round;stroke-dasharray:2.025, 3.038" /></g><g
         transform="translate(477.6,252.69)"
         id="g1705"><path
           d="M 0,0 V -1"
           id="path1703"
           inkscape:connector-curvature="0"
           style="fill:none;stroke:#81a7e2;stroke-linecap:round;stroke-linejoin:round" /></g><g
         transform="translate(422.83,251.69)"
         id="g1709"><path
           d="M 0,0 V 1"
           id="path1707"
           inkscape:connector-curvature="0"
           style="fill:none;stroke:#81a7e2;stroke-linecap:round;stroke-linejoin:round" /></g><g
         transform="translate(422.83,255.66)"
         id="g1713"><path
           d="m 0,0 v 20.312 c 0,14.041 11.382,25.422 25.422,25.422 h 60.56 c 13.155,0 23.818,-10.663 23.818,-23.817 V -1.484"
           id="path1711"
           inkscape:connector-curvature="0"
           style="fill:none;stroke:#81a7e2;stroke-linecap:round;stroke-linejoin:round;stroke-dasharray:1.979, 2.969" /></g><g
         transform="translate(532.63,252.69)"
         id="g1717"><path
           d="M 0,0 V -1"
           id="path1715"
           inkscape:connector-curvature="0"
           style="fill:none;stroke:#81a7e2;stroke-linecap:round;stroke-linejoin:round" /></g><g
         clip-path="url(#e)"
         id="g1723"
         style="opacity:0.36000001"><g
           transform="translate(413.53,313.4)"
           id="g1721"><path
             d="m 0,0 c 0.011,0.168 0.017,0.337 0.017,0.508 0,4.665 -3.782,8.447 -8.447,8.447 -0.885,0 -1.738,-0.137 -2.54,-0.39 0,0.03 0.002,0.06 0.002,0.089 0,5.773 -4.68,10.454 -10.454,10.454 -4.6,0 -8.505,-2.974 -9.902,-7.104 -1.214,0.728 -2.635,1.148 -4.155,1.148 -4.469,0 -8.092,-3.623 -8.092,-8.093 0,-0.513 0.05,-1.015 0.141,-1.502 -3.914,-0.568 -6.921,-3.936 -6.921,-8.007 0,-4.469 3.623,-8.093 8.093,-8.093 h 40.203 c 3.557,0 6.44,2.883 6.44,6.44 C 4.385,-3.265 2.549,-0.858 0,0"
             id="path1719"
             inkscape:connector-curvature="0"
             style="fill:#2249c6" /></g></g><g
         transform="translate(411.04,315.65)"
         id="g1727"><path
           d="m 0,0 c 0.01,0.168 0.017,0.337 0.017,0.508 0,4.665 -3.783,8.447 -8.448,8.447 -0.884,0 -1.738,-0.137 -2.54,-0.39 0,0.03 0.002,0.059 0.002,0.089 0,5.773 -4.679,10.453 -10.453,10.453 -4.601,0 -8.506,-2.974 -9.902,-7.103 -1.215,0.728 -2.636,1.148 -4.155,1.148 -4.47,0 -8.093,-3.623 -8.093,-8.093 0,-0.514 0.05,-1.015 0.141,-1.502 -3.914,-0.568 -6.921,-3.936 -6.921,-8.007 0,-4.47 3.623,-8.093 8.093,-8.093 h 40.203 c 3.557,0 6.441,2.883 6.441,6.44 C 4.385,-3.265 2.548,-0.858 0,0"
           id="path1725"
           inkscape:connector-curvature="0"
           style="fill:#7d9cff" /></g><g
         transform="translate(415.04,318.65)"
         id="g1731"><path
           d="m 0,0 c 0.01,0.168 0.017,0.337 0.017,0.508 0,4.665 -3.783,8.447 -8.448,8.447 -0.884,0 -1.738,-0.137 -2.54,-0.39 0,0.03 0.002,0.059 0.002,0.089 0,5.773 -4.679,10.453 -10.453,10.453 -4.601,0 -8.506,-2.974 -9.902,-7.103 -1.215,0.728 -2.636,1.148 -4.155,1.148 -4.47,0 -8.093,-3.623 -8.093,-8.093 0,-0.514 0.05,-1.015 0.141,-1.502 -3.914,-0.568 -6.921,-3.936 -6.921,-8.007 0,-4.47 3.623,-8.093 8.093,-8.093 h 40.203 c 3.557,0 6.441,2.883 6.441,6.44 C 4.385,-3.265 2.548,-0.858 0,0 Z"
           stroke-miterlimit="10"
           id="path1729"
           inkscape:connector-curvature="0"
           style="fill:none;stroke:#c0d1ff;stroke-width:0.5;stroke-miterlimit:10" /></g><g
         clip-path="url(#d)"
         id="g1737"
         style="opacity:0.36000001"><g
           transform="translate(610.57,305.19)"
           id="g1735"><path
             d="M 0,0 C 0.008,0.186 0.015,0.372 0.015,0.559 V 0.708 L -0.101,0.697 C -1.132,6.662 -6.329,11.2 -12.589,11.2 c -0.867,0 -1.714,-0.088 -2.531,-0.253 -2.733,4.124 -7.413,6.846 -12.732,6.846 -8.014,0 -14.582,-6.178 -15.21,-14.031 -1.388,0.783 -2.99,1.233 -4.698,1.233 -5.289,0 -9.575,-4.287 -9.575,-9.575 v -0.096 c 0,-5.235 4.244,-9.479 9.48,-9.479 h 33.156 c 0.364,0 0.723,0.018 1.081,0.044 0.34,-0.028 0.682,-0.044 1.029,-0.044 7.002,0 12.678,5.676 12.678,12.677 0,0.5 -0.032,0.993 -0.089,1.478"
             id="path1733"
             inkscape:connector-curvature="0"
             style="fill:#2249c6" /></g></g><g
         transform="translate(607.93,307.56)"
         id="g1741"><path
           d="M 0,0 C 0.007,0.186 0.015,0.371 0.015,0.559 V 0.707 L -0.101,0.697 C -1.133,6.662 -6.329,11.2 -12.589,11.2 c -0.867,0 -1.714,-0.088 -2.532,-0.254 -2.733,4.125 -7.413,6.847 -12.732,6.847 -8.014,0 -14.581,-6.179 -15.209,-14.032 -1.388,0.784 -2.991,1.234 -4.699,1.234 -5.288,0 -9.575,-4.287 -9.575,-9.576 v -0.095 c 0,-5.236 4.244,-9.479 9.48,-9.479 H -14.7 c 0.364,0 0.724,0.017 1.082,0.043 0.34,-0.027 0.682,-0.043 1.029,-0.043 7.002,0 12.678,5.676 12.678,12.677 0,0.5 -0.032,0.993 -0.089,1.478"
           id="path1739"
           inkscape:connector-curvature="0"
           style="fill:#7d9cff" /></g><g
         transform="translate(603.93,309.56)"
         id="g1745"><path
           d="M 0,0 C 0.007,0.186 0.015,0.371 0.015,0.559 V 0.707 L -0.101,0.697 C -1.133,6.662 -6.329,11.2 -12.589,11.2 c -0.867,0 -1.714,-0.088 -2.532,-0.254 -2.733,4.125 -7.413,6.847 -12.732,6.847 -8.014,0 -14.581,-6.179 -15.209,-14.032 -1.388,0.784 -2.991,1.234 -4.699,1.234 -5.288,0 -9.575,-4.287 -9.575,-9.576 v -0.095 c 0,-5.236 4.244,-9.479 9.48,-9.479 H -14.7 c 0.364,0 0.724,0.017 1.082,0.043 0.34,-0.027 0.682,-0.043 1.029,-0.043 7.002,0 12.678,5.676 12.678,12.677 0,0.5 -0.032,0.993 -0.089,1.478 z"
           stroke-miterlimit="10"
           id="path1743"
           inkscape:connector-curvature="0"
           style="fill:none;stroke:#c0d1ff;stroke-width:0.5;stroke-miterlimit:10" /></g></g></g></svg>