<?xml version="1.0" encoding="UTF-8" standalone="no"?>
<svg
   xmlns:dc="http://purl.org/dc/elements/1.1/"
   xmlns:cc="http://creativecommons.org/ns#"
   xmlns:rdf="http://www.w3.org/1999/02/22-rdf-syntax-ns#"
   xmlns:svg="http://www.w3.org/2000/svg"
   xmlns="http://www.w3.org/2000/svg"
   viewBox="0 0 178.82367 39.925426"
   height="39.925426"
   width="178.82367"
   id="svg827"
   version="1.1">
  <metadata
     id="metadata833">
    <rdf:RDF>
      <cc:Work
         rdf:about="">
        <dc:format>image/svg+xml</dc:format>
        <dc:type
           rdf:resource="http://purl.org/dc/dcmitype/StillImage" />
        <dc:title></dc:title>
      </cc:Work>
    </rdf:RDF>
  </metadata>
  <defs
     id="defs831" />
  <g
     transform="translate(-11.273069,-81.198486)"
     id="g1398">
    <path
       id="path1412"
       d="m 27.960749,121.12525 c -0.955755,-0.55683 -2.225237,-1.92332 -2.821072,-3.03664 -2.419268,-4.52045 5.16014,-9.38879 8.858809,-5.69012 1.989045,1.98905 1.425992,6.5283 -1.022506,8.2433 -2.582887,1.80912 -2.717562,1.8221 -5.015231,0.48346 z m 4.057288,-4.75509 c 0.237604,-1.61475 -0.196041,-2.17167 -1.690983,-2.17167 -2.631895,0 -3.616912,1.70666 -2.064573,3.57711 1.623843,1.95661 3.356243,1.3083 3.755556,-1.40544 z m -19.379426,-4.62271 c -1.991384,-3.03923 -1.109181,-6.287 2.105646,-7.75177 5.147826,-2.3455 9.894807,4.61937 5.8828,8.63138 -2.362441,2.36244 -6.136457,1.94689 -7.988446,-0.87961 z m 6.372298,-2.81347 c 0.397987,-2.06658 -2.488814,-3.4591 -4.012423,-1.93549 -1.523609,1.52361 -0.131088,4.41041 1.935492,4.01242 0.957848,-0.18446 1.892467,-1.11908 2.076931,-2.07693 z m 20.947861,4.01451 c -3.045194,-2.34682 -2.626868,-7.39804 0.739716,-8.93195 3.761775,-1.71398 7.5,0.28249 7.5,4.00552 0,4.86923 -4.681782,7.66841 -8.239716,4.92643 z m 5.059267,-4.57833 c 0.235395,-1.59974 -0.197305,-2.17167 -1.643011,-2.17167 -2.352537,0 -3.470388,2.30615 -1.885895,3.89064 1.595512,1.59552 3.152817,0.83693 3.528906,-1.71897 z m 134.180453,2.82833 c 0,-0.55 0.9,-1 2,-1 2.51811,0 2.51357,-0.053 -0.51685,-6.03324 -2.15463,-4.251977 -2.93827,-4.966764 -5.4452,-4.966764 -2.78405,0 -2.94339,0.234099 -3.23316,4.750004 -0.38609,6.01695 -2.20156,6.2013 -2.6237,0.26643 -0.1754,-2.46597 -0.72496,-4.734529 -1.22124,-5.041246 -1.5514,-0.95882 3.97324,-5.975188 6.58062,-5.975188 1.35274,0 2.45953,0.45 2.45953,1 0,0.55 -0.87344,1 -1.94098,1 -1.06754,0 -2.2191,0.45 -2.55902,1 -0.37125,0.600692 0.92319,1 3.24172,1 3.61367,0 4.00677,0.302619 6.16586,4.746674 l 2.30611,4.74666 2.41232,-4.74666 c 1.32678,-2.610674 2.8537,-4.746674 3.39316,-4.746674 0.53946,0 0.98083,0.237833 0.98083,0.528517 0,1.231326 -6.35466,13.034857 -7.37898,13.706177 -1.64177,1.07597 -4.62102,0.92466 -4.62102,-0.23469 z m -126.000004,-9.5 v -7.500004 h 7 c 4,0 7,0.428571 7,1 0,0.555556 -2.666667,1 -6,1 -5.333333,0 -6,0.222222 -6,2 0,1.777778 0.666667,2.000004 6,2.000004 3.333333,0 6,0.44444 6,1 0,0.55556 -2.666667,1 -6,1 h -6 v 3.5 c 0,1.925 -0.45,3.5 -1,3.5 -0.577778,0 -1,-3.16667 -1,-7.5 z m 16,1.6586 v -5.841402 l 5.02401,-0.177819 c 3.748348,-0.132668 5.176239,0.218882 5.623539,1.384527 0.770856,2.008824 -0.502664,3.328554 -1.560429,1.617054 -0.451025,-0.729775 -2.073834,-1.156174 -3.695627,-0.97104 -2.685158,0.306522 -2.913243,0.66903 -3.196284,5.08008 -0.434353,6.76915 -2.195209,5.8937 -2.195209,-1.0914 z m 13.75,4.7613 c -2.055263,-1.19708 -2.431085,-7.83882 -0.55,-9.719904 1.722404,-1.722404 8.376363,-1.48078 10.228571,0.371429 0.864286,0.864285 1.571429,2.439285 1.571429,3.500005 0,1.67448 -0.735597,1.92857 -5.583333,1.92857 -4.018851,0 -5.468353,0.35026 -5.172989,1.25 0.556293,1.69459 6.5349,2.17865 8.345812,0.67573 0.802363,-0.6659 1.78476,-0.88481 2.183104,-0.48647 1.203972,1.20397 -2.94779,3.5628 -6.213724,3.53033 -1.682378,-0.0167 -3.84637,-0.48908 -4.80887,-1.04969 z m 8,-7.1699 c -0.229167,-0.6875 -1.916667,-1.250004 -3.75,-1.250004 -1.833333,0 -3.520833,0.562504 -3.75,1.250004 -0.288889,0.86667 0.861111,1.25 3.75,1.25 2.888889,0 4.038889,-0.38333 3.75,-1.25 z m 7,7.1699 c -2.055263,-1.19708 -2.431085,-7.83882 -0.55,-9.719904 1.722404,-1.722404 8.376364,-1.48078 10.228574,0.371429 0.86429,0.864285 1.57143,2.439285 1.57143,3.500005 0,1.67448 -0.7356,1.92857 -5.58333,1.92857 -4.018858,0 -5.46836,0.35026 -5.172996,1.25 0.556293,1.69459 6.534906,2.17865 8.345816,0.67573 0.80236,-0.6659 1.78476,-0.88481 2.1831,-0.48647 1.20398,1.20397 -2.94779,3.5628 -6.21372,3.53033 -1.68238,-0.0167 -3.846374,-0.48908 -4.808874,-1.04969 z m 8.000004,-7.1699 c -0.22917,-0.6875 -1.91667,-1.250004 -3.75,-1.250004 -1.83334,0 -3.520837,0.562504 -3.750004,1.250004 -0.288889,0.86667 0.861111,1.25 3.750004,1.25 2.88889,0 4.03889,-0.38333 3.75,-1.25 z m 5.91667,7.58333 c -0.36667,-0.36666 -0.66667,-3.74166 -0.66667,-7.5 0,-5.407408 0.31301,-6.833334 1.5,-6.833334 1.2,0 1.5,1.5 1.5,7.500004 0,6.8973 -0.57766,8.58901 -2.33333,6.83333 z m 5.83333,-0.72391 c -3.23487,-2.41367 -0.85055,-5.04056 4.91663,-5.41683 3.09686,-0.20205 4.57764,-0.71616 4.32045,-1.50001 -0.51753,-1.577247 -5.68787,-2.141798 -7.0589,-0.77076 -1.48887,1.48887 -2.67818,1.34906 -2.67818,-0.314835 0,-1.736607 2.17358,-2.606989 6.51036,-2.606989 4.67075,0 6.66187,2.312884 6.29113,7.307784 l -0.30149,4.06194 -5,0.366 c -3.36064,0.24599 -5.65575,-0.12329 -7,-1.1263 z m 9.25632,-2.35942 c 0.28328,-0.86291 -0.85414,-1.25 -3.67299,-1.25 -3.86659,0 -4.97019,0.7798 -3.36927,2.38073 1.1286,1.1286 6.58836,0.25197 7.04226,-1.13073 z m 5.24368,-2.0914 v -5.841402 l 5.12028,-0.181226 c 2.81615,-0.09967 5.74115,0.334056 6.5,0.963844 1.59524,1.323936 1.92884,10.900184 0.37972,10.900184 -0.55,0 -1.00689,-1.6875 -1.01531,-3.75 -0.0212,-5.19952 -1.07529,-6.457488 -5.08955,-6.074187 -3.28781,0.313934 -3.40478,0.474349 -3.69993,5.074187 -0.43435,6.76915 -2.19521,5.8937 -2.19521,-1.0914 z m 16.75,4.7613 c -2.05526,-1.19708 -2.43108,-7.83882 -0.55,-9.719904 1.73868,-1.738682 9.29595,-1.512269 10.82006,0.324166 1.61355,1.944208 0.4992,3.151678 -1.43057,1.550108 -0.80236,-0.665906 -2.95074,-1.067531 -4.77417,-0.892505 -2.82239,0.270916 -3.3644,0.748145 -3.6454,3.209725 -0.18747,1.64233 0.24454,3.25577 1,3.73469 2.18411,1.3846 6.84686,0.99366 7.46845,-0.62618 0.73836,-1.92412 2.36163,-1.9483 2.36163,-0.0352 0,3.06511 -7.42185,4.68478 -11.25,2.45508 z m 14.25,-4.9199 c 0,-3.333337 0.44444,-6.000004 1,-6.000004 0.55556,0 1,2.666667 1,6.000004 0,3.33333 -0.44444,6 -1,6 -0.55556,0 -1,-2.66667 -1,-6 z m -137.809633,2.25 c 0.18536,-0.9625 0.999694,-1.75 1.809629,-1.75 0.809935,0 1.624269,0.7875 1.809629,1.75 0.236462,1.22785 -0.30348,1.75 -1.809629,1.75 -1.506149,0 -2.046091,-0.52215 -1.809629,-1.75 z m 5.255778,0.66287 c -0.872677,-1.41202 1.054697,-3.3394 2.466719,-2.46672 1.586021,0.98021 1.329769,3.55385 -0.353851,3.55385 -0.792541,0 -1.743331,-0.48921 -2.112868,-1.08713 z m -7.913525,-3.86008 c -0.87924,-1.42265 0.241981,-3.052794 2.099717,-3.052794 0.87615,0 1.378052,0.702561 1.190983,1.667134 -0.389522,2.00847 -2.386169,2.84922 -3.2907,1.38566 z m 10.487431,-0.52863 c -1.015983,-1.22418 -0.935963,-1.6192 0.434538,-2.145113 2.337848,-0.897117 4.021964,0.980553 2.220467,2.475663 -1.09414,0.90806 -1.688464,0.83407 -2.655005,-0.33055 z M 12.170879,97.146901 c -1.61574,-3.019037 -0.801006,-6.235138 1.922184,-7.587676 5.206807,-2.586088 10.433264,3.409545 6.632828,7.608979 -2.426279,2.681008 -7.115028,2.669333 -8.555012,-0.0213 z m 6.55468,-1.99222 c 0.918142,-1.485585 -1.397719,-3.943063 -3.100186,-3.289765 -2.191924,0.84112 -1.777611,4.33357 0.514096,4.33357 1.067541,0 2.231281,-0.469712 2.58609,-1.043805 z m 20.009393,2.0841 c -2.312762,-2.555574 -1.323189,-6.724717 1.950158,-8.216154 5.32226,-2.424984 10.012022,4.604641 5.684635,8.520871 -2.442966,2.210855 -5.467476,2.090141 -7.634793,-0.304717 z m 6.275957,-3.304803 c 0.397987,-2.06658 -2.488814,-3.459101 -4.012423,-1.935492 -1.523609,1.523609 -0.131088,4.41041 1.935492,4.012423 0.957848,-0.184464 1.892467,-1.119083 2.076931,-2.076931 z m -20.242396,3.377815 c -0.301403,-0.487681 0.06233,-1.39323 0.808305,-2.012331 1.018791,-0.845522 1.63602,-0.788609 2.480313,0.228702 0.618202,0.744887 0.827907,1.650436 0.466012,2.012331 -0.943338,0.943338 -3.111906,0.811246 -3.75463,-0.228702 z m 5.429973,-1.113307 c 0,-1.506149 0.522151,-2.046091 1.75,-1.809629 0.9625,0.18536 1.75,0.999694 1.75,1.809629 0,0.809935 -0.7875,1.624269 -1.75,1.809629 -1.227849,0.236462 -1.75,-0.30348 -1.75,-1.809629 z m 133.000004,-1 c 0,-0.55 0.45,-1 1,-1 0.55,0 1,0.45 1,1 0,0.55 -0.45,1 -1,1 -0.55,0 -1,-0.45 -1,-1 z M 25.23367,89.264227 c -2.365671,-4.420296 -0.553362,-8.065741 4.009828,-8.065741 2.880947,0 5.954988,2.713892 5.954988,5.257312 0,4.371191 -7.932037,6.606713 -9.964816,2.808429 z m 6.464816,-3.065741 c 0,-0.825 -1.0125,-1.643798 -2.25,-1.819551 -1.731695,-0.24594 -2.25,0.173208 -2.25,1.819551 0,1.646343 0.518305,2.065491 2.25,1.819551 1.2375,-0.175753 2.25,-0.994551 2.25,-1.819551 z"
       style="fill:#ffffff;fill-opacity:1" />
    <path
       id="path1410"
       d="m 26.291054,119.81003 c -1.618597,-1.95029 -1.024,-6.63987 1.002655,-7.90793 2.62656,-1.64342 6.791216,-0.004 7.536802,2.9664 0.364366,1.45175 0.213337,3.35739 -0.335619,4.23477 -1.339342,2.14061 -6.635206,2.59684 -8.203838,0.70676 z m 5.949085,-2.16173 c 1.06278,-1.28057 0.997114,-1.83961 -0.377556,-3.21428 -1.552129,-1.55213 -1.776065,-1.55213 -3.328194,0 -1.37467,1.37467 -1.440336,1.93371 -0.377556,3.21428 0.707598,0.85261 1.626342,1.55019 2.041653,1.55019 0.415311,0 1.334055,-0.69758 2.041653,-1.55019 z m -19.041653,-5.44981 c -2.587385,-2.58738 -2.520708,-3.5702 0.443297,-6.53421 1.916926,-1.91692 2.940241,-2.26057 4.75,-1.59511 3.415424,1.25586 4.650074,5.53992 2.334108,8.09904 -2.328795,2.57329 -4.973758,2.58393 -7.527405,0.0303 z m 6,-3.03138 c 0,-2.3586 -2.644547,-3.72407 -4.2,-2.16862 -1.555453,1.55545 -0.189976,4.2 2.168615,4.2 1.37518,0 2.031385,-0.65621 2.031385,-2.03138 z m 21.222506,3.47468 c -3.885843,-2.72175 -1.968355,-9.4433 2.693935,-9.4433 2.337946,0 5.083559,3.11746 5.083559,5.77204 0,1.8068 -3.271979,5.22796 -5,5.22796 -0.305243,0 -1.555115,-0.70052 -2.777494,-1.5567 z m 5.046853,-2.6933 c 0.70928,-2.03336 -0.351523,-3.75 -2.317331,-3.75 -2.204664,0 -3.335102,1.55934 -2.572026,3.54789 0.682096,1.77751 4.287833,1.92656 4.889357,0.20211 z m 134.230645,1.25 c 0.33992,-0.55 1.26648,-1 2.05902,-1 2.00961,0 1.81529,-1.14109 -1.04697,-6.14793 -2.57387,-4.502359 -3.26668,-7.436492 -1.49776,-6.343242 0.55786,0.344776 1.96477,2.489962 3.12647,4.767072 l 2.11217,4.14021 2.3927,-4.70805 c 1.31599,-2.589439 2.83408,-4.708064 3.37354,-4.708064 0.53946,0 0.98083,0.23996 0.98083,0.533244 0,1.099884 -5.28875,11.03575 -6.76899,12.71676 -1.60928,1.82755 -5.80839,2.49323 -4.73101,0.75 z m -96.250004,-2.9846 c -3.040586,-1.28509 -3.265724,-8.401438 -0.315741,-9.98022 3.006114,-1.608824 7.586143,-1.222615 9.410753,0.793557 2.915213,3.221273 2.02283,4.171263 -3.918336,4.171263 -4.767552,0 -5.525395,0.25301 -5.241811,1.75 0.40557,2.14093 6.255569,2.95929 8.404625,1.17573 1.693492,-1.40547 3.275555,-0.39077 1.757537,1.12724 -1.490603,1.49061 -7.493526,2.06279 -10.097027,0.96243 z m 8.091373,-7.56818 c -0.722226,-1.882094 -7.462457,-1.630062 -8.097407,0.30278 -0.288122,0.87707 0.947419,1.25 4.141316,1.25 3.704099,0 4.440964,-0.28922 3.956091,-1.55278 z m 6.908627,7.56818 c -3.040586,-1.28509 -3.265724,-8.401438 -0.315741,-9.98022 3.006115,-1.608824 7.586145,-1.222615 9.410755,0.793557 2.91522,3.221273 2.02283,4.171263 -3.91833,4.171263 -4.76756,0 -5.525403,0.25301 -5.241819,1.75 0.40557,2.14093 6.255569,2.95929 8.404629,1.17573 1.69349,-1.40547 3.27555,-0.39077 1.75754,1.12724 -1.49061,1.49061 -7.49353,2.06279 -10.097034,0.96243 z m 8.091374,-7.56818 c -0.72222,-1.882094 -7.462458,-1.630062 -8.097408,0.30278 -0.288122,0.87707 0.947419,1.25 4.141318,1.25 3.7041,0 4.44097,-0.28922 3.95609,-1.55278 z m 12.35037,7.85223 c -1.28572,-0.33314 -1.71919,-1.2388 -1.5,-3.13399 0.27972,-2.41871 0.74798,-2.69368 5.05826,-2.97025 3.52359,-0.2261 4.75,-0.71078 4.75,-1.87723 0,-1.28435 -0.91619,-1.484408 -5.00067,-1.091941 -4.12461,0.396322 -4.80391,0.243421 -3.87756,-0.872771 1.49856,-1.805653 8.31971,-1.73117 9.84568,0.107509 0.66679,0.80343 1.44715,3.211403 1.73413,5.351033 0.51749,3.85813 0.48991,3.89552 -3.33989,4.52822 -4.14776,0.68522 -4.8839,0.68132 -7.66995,-0.0406 z m 8.30826,-2.79945 c 0,-1.08333 -1.11111,-1.5 -4,-1.5 -2.88889,0 -4,0.41667 -4,1.5 0,1.08333 1.11111,1.5 4,1.5 2.88889,0 4,-0.41667 4,-1.5 z m 22.25,2.5154 c -1.79945,-0.76053 -2.25,-1.75134 -2.25,-4.94799 0,-4.457236 1.7895,-6.067414 6.74313,-6.067414 3.13364,0 7.19295,2.397251 6.02946,3.560744 -0.39834,0.39834 -1.38074,0.17943 -2.1831,-0.48647 -0.80236,-0.665906 -2.95074,-1.067531 -4.77417,-0.892505 -3.06166,0.293882 -3.31532,0.586025 -3.31532,3.818235 0,3.23221 0.25366,3.52435 3.31532,3.81823 1.82343,0.17503 3.97181,-0.2266 4.77417,-0.8925 1.69349,-1.40547 3.27555,-0.39077 1.75754,1.12724 -1.49061,1.49061 -7.49353,2.06279 -10.09703,0.96243 z m -96.250004,-7.0154 v -7.000004 h 7 c 4,0 7,0.428571 7,1 0,0.555556 -2.666667,1 -6,1 -5.333333,0 -6,0.222222 -6,2 0,1.757576 0.666667,2.000004 5.5,2.000004 3.025,0 5.5,0.45 5.5,1 0,0.55 -2.475,1 -5.5,1 -5.444444,0 -5.5,0.0303 -5.5,3 0,1.65 -0.45,3 -1,3 -0.571429,0 -1,-3 -1,-7 z m 16.004938,1.75 0.0049,-5.250004 4.372214,-0.250486 c 4.246252,-0.24327 7.891648,1.810082 6.206038,3.49569 -0.383281,0.38329 -1.058734,0.11137 -1.501008,-0.60424 -0.451025,-0.729775 -2.073834,-1.156174 -3.695627,-0.97104 -2.624916,0.299645 -2.919842,0.7219 -3.198991,4.58008 -0.439119,6.06916 -2.193459,5.2672 -2.187564,-1 z m 42.995066,-1.75 c 0,-4.000004 0.42857,-7.000004 1,-7.000004 0.57143,0 1,3 1,7.000004 0,4 -0.42857,7 -1,7 -0.57143,0 -1,-3 -1,-7 z m 20.00494,1.75 0.005,-5.250004 4.5374,-0.262524 c 6.6985,-0.387563 8.45266,0.919372 8.45266,6.297708 0,5.68569 -1.78402,5.86049 -2.1925,0.21482 -0.30681,-4.240421 -0.31652,-4.250004 -4.3075,-4.250004 -3.99098,0 -4.00069,0.0096 -4.3075,4.250004 -0.43912,6.06916 -2.19346,5.2672 -2.18756,-1 z m 30.99506,-0.30902 c 0,-3.451368 0.37914,-5.324696 1,-4.940984 0.55,0.339919 1,2.841474 1,5.559024 0,2.71754 -0.45,4.94098 -1,4.94098 -0.55,0 -1,-2.50156 -1,-5.55902 z m 5.81682,0.30902 c -0.20691,-2.8875 -0.0253,-5.400004 0.40349,-5.583337 0.42883,-0.183334 0.77969,-0.92205 0.77969,-1.641592 0,-1.706857 4.97817,-2.946903 6.34464,-1.58043 0.74048,0.740473 0.24977,1.055355 -1.64464,1.055355 -1.485,0 -2.7,0.45 -2.7,1 0,0.55 0.87344,1 1.94098,1 1.06754,0 2.2191,0.45 2.55902,1 0.35052,0.567158 -0.48962,1 -1.94098,1 -2.36625,0 -2.55902,0.338992 -2.55902,4.500004 0,3.1958 -0.40676,4.5 -1.40349,4.5 -0.97865,0 -1.51736,-1.58916 -1.77969,-5.25 z m -143.816824,2.80902 c 0,-0.79254 0.358986,-1.66285 0.797746,-1.93402 1.279293,-0.79065 3.525198,1.04345 2.771352,2.2632 -0.992197,1.60541 -3.569098,1.36774 -3.569098,-0.32918 z m 5.446149,0.35385 c -1.030521,-1.66742 1.287209,-3.57951 2.666719,-2.2 1.153924,1.15392 0.431721,3.28713 -1.112868,3.28713 -0.485081,0 -1.184314,-0.48921 -1.553851,-1.08713 z m -8,-4 c -1.030521,-1.66742 1.287209,-3.579516 2.666719,-2.200006 1.153924,1.153926 0.431721,3.287136 -1.112868,3.287136 -0.485081,0 -1.184314,-0.48921 -1.553851,-1.08713 z m 10.553851,-1.41287 c 0,-0.825004 0.675,-1.500004 1.5,-1.500004 0.825,0 1.5,0.675 1.5,1.500004 0,0.825 -0.675,1.5 -1.5,1.5 -0.825,0 -1.5,-0.675 -1.5,-1.5 z M 12.853474,97.369745 c -2.078466,-2.296679 -2.107325,-4.576064 -0.08356,-6.59983 2.380786,-2.380787 6.137101,-1.945902 8.020528,0.928571 1.517417,2.315871 1.517417,2.684129 0,5 -1.947512,2.972279 -5.576797,3.279221 -7.936969,0.671259 z m 5.193405,-1.056399 c 1.815504,-1.150536 1.056848,-4.509428 -1.112901,-4.927283 -1.943628,-0.374309 -3.256868,2.011355 -2.373866,4.312423 0.651063,1.696643 1.534052,1.85235 3.486767,0.61486 z m 21.151607,0.88514 c -2.338159,-2.338159 -2.504233,-3.92816 -0.672014,-6.43387 2.792896,-3.819512 9.672014,-1.281599 9.672014,3.568296 0,1.845274 -3.55224,4.865574 -5.722506,4.865574 -0.702622,0 -2.177494,-0.9 -3.277494,-2 z m 6,-3.031385 c 0,-2.358591 -2.644547,-3.724068 -4.2,-2.168615 -1.555453,1.555453 -0.189976,4.2 2.168615,4.2 1.37518,0 2.031385,-0.656205 2.031385,-2.031385 z m -19.823324,2.478564 c 0.452271,-2.172113 2.22702,-2.305022 2.632953,-0.197179 0.210801,1.094603 -0.279671,1.75 -1.309629,1.75 -0.960727,0 -1.511966,-0.646837 -1.323324,-1.552821 z m 4.823324,0.111838 c 0,-2.054105 2.070252,-3.063381 3.04582,-1.484878 0.452218,0.731703 0.600349,1.689355 0.32918,2.128115 -0.840424,1.359835 -3.375,0.876774 -3.375,-0.643237 z M 163.19849,95.198486 c 0,-0.55 0.45,-1 1,-1 0.55,0 1,0.45 1,1 0,0.55 -0.45,1 -1,1 -0.55,0 -1,-0.45 -1,-1 z M 25.769915,89.627057 c -3.233596,-3.233596 -0.782393,-8.428571 3.976947,-8.428571 1.462402,0 3.047742,0.980158 4.043581,2.5 1.517417,2.315871 1.517417,2.684129 0,5 -1.883427,2.874473 -5.639742,3.309358 -8.020528,0.928571 z m 4.846784,-1.03556 c 2.050029,-0.78667 2.044353,-4.00153 -0.0085,-4.789267 -2.08661,-0.800724 -3.409713,0.08733 -3.409713,2.288606 0,2.775265 0.929868,3.455529 3.418213,2.500661 z"
       style="fill:#ffffff;fill-opacity:1" />
    <path
       id="path1408"
       d="m 26.291054,119.81003 c -1.618597,-1.95029 -1.024,-6.63987 1.002655,-7.90793 2.62656,-1.64342 6.791216,-0.004 7.536802,2.9664 0.364366,1.45175 0.213337,3.35739 -0.335619,4.23477 -1.339342,2.14061 -6.635206,2.59684 -8.203838,0.70676 z m 5.949085,-2.16173 c 1.06278,-1.28057 0.997114,-1.83961 -0.377556,-3.21428 -1.552129,-1.55213 -1.776065,-1.55213 -3.328194,0 -1.37467,1.37467 -1.440336,1.93371 -0.377556,3.21428 0.707598,0.85261 1.626342,1.55019 2.041653,1.55019 0.415311,0 1.334055,-0.69758 2.041653,-1.55019 z m -19.041653,-5.44981 c -2.587385,-2.58738 -2.520708,-3.5702 0.443297,-6.53421 1.916926,-1.91692 2.940241,-2.26057 4.75,-1.59511 3.415424,1.25586 4.650074,5.53992 2.334108,8.09904 -2.328795,2.57329 -4.973758,2.58393 -7.527405,0.0303 z m 6,-3.03138 c 0,-2.3586 -2.644547,-3.72407 -4.2,-2.16862 -1.555453,1.55545 -0.189976,4.2 2.168615,4.2 1.37518,0 2.031385,-0.65621 2.031385,-2.03138 z m 21.222506,3.47468 c -3.885843,-2.72175 -1.968355,-9.4433 2.693935,-9.4433 2.337946,0 5.083559,3.11746 5.083559,5.77204 0,1.8068 -3.271979,5.22796 -5,5.22796 -0.305243,0 -1.555115,-0.70052 -2.777494,-1.5567 z m 5.046853,-2.6933 c 0.70928,-2.03336 -0.351523,-3.75 -2.317331,-3.75 -2.204664,0 -3.335102,1.55934 -2.572026,3.54789 0.682096,1.77751 4.287833,1.92656 4.889357,0.20211 z m 134.178675,1.3341 c 0.3685,-0.59626 1.31845,-1.0841 2.11099,-1.0841 2.08139,0 1.77221,-1.94558 -1.03293,-6.5 -2.62243,-4.257767 -3.01212,-5.500004 -1.72536,-5.500004 0.44041,0 1.85905,2.137504 3.15255,4.750004 l 2.3518,4.75 2.09746,-4.72994 c 1.1536,-2.60147 2.43496,-4.738968 2.84746,-4.750002 1.25513,-0.03357 0.8282,1.229598 -2.52812,7.479942 -2.34033,4.35832 -3.86788,6.09141 -5.58287,6.3341 -1.50304,0.21269 -2.11752,-0.0599 -1.69098,-0.75 z m -59.44803,-3.0487 c -1.55017,-0.38282 -2.61965,-1.44323 -2.81492,-2.79105 -0.37091,-2.56016 3.10168,-3.837 7.85171,-2.88699 3.08041,0.61608 3.54386,0.10795 2.0513,-2.24907 -0.64002,-1.010706 -2.20377,-1.242646 -5.71198,-0.84722 -4.32241,0.487199 -4.62883,0.396891 -2.91227,-0.858293 2.26683,-1.657545 5.90139,-1.812866 8.6019,-0.367597 1.48492,0.794703 1.93426,2.11111 1.93426,5.66667 0,2.54732 -0.25887,4.37261 -0.57527,4.05621 -0.3164,-0.3164 -1.7789,-0.24452 -3.25,0.15973 -1.4711,0.40425 -3.79973,0.45718 -5.17473,0.11761 z m 7.5,-2.5354 c 0,-1.14099 -5.94653,-1.92636 -8.15858,-1.07752 -0.8075,0.30987 -1.17336,1.04043 -0.81302,1.62347 0.81575,1.31991 8.9716,0.8236 8.9716,-0.54595 z m -74.500004,-4.5 v -7.000004 l 7.25,0.19268 7.25,0.192679 -6.25,0.355038 c -5.87105,0.333511 -6.25,0.503724 -6.25,2.80732 0,2.305797 0.328539,2.452287 5.5,2.452287 3.025,0 5.5,0.45 5.5,1 0,0.55 -2.475,1 -5.5,1 -5.444444,0 -5.5,0.0303 -5.5,3 0,1.65 -0.45,3 -1,3 -0.571429,0 -1,-3 -1,-7 z m 16,2.0879 v -4.912108 l 4.108121,-0.694063 c 3.106373,-0.524818 4.493972,-0.308212 5.690476,0.888293 0.870296,0.870295 1.247173,1.917538 0.837506,2.327208 -0.409667,0.40967 -1.106709,0.15934 -1.548983,-0.55627 -0.451025,-0.729775 -2.073834,-1.156174 -3.695627,-0.97104 -2.624916,0.299645 -2.919842,0.7219 -3.198991,4.58008 -0.426027,5.88822 -2.192502,5.35477 -2.192502,-0.6621 z m 13.2,3.7121 c -1.367663,-1.36766 -1.568371,-5.67116 -0.353772,-7.585436 0.448581,-0.706987 2.416032,-1.545146 4.372113,-1.862574 2.785911,-0.452091 4.014248,-0.119405 5.669085,1.535432 3.274521,3.274528 2.569295,4.112578 -3.46075,4.112578 -4.767552,0 -5.525395,0.25301 -5.241811,1.75 0.403317,2.12904 6.250643,2.96338 8.380459,1.19579 1.145974,-0.95108 1.434676,-0.86419 1.434676,0.43177 0,1.27125 -1.038999,1.62244 -4.8,1.62244 -2.64,0 -5.34,-0.54 -6,-1.2 z m 9.555613,-6.05 c -0.22608,-0.6875 -2.28858,-1.388378 -4.583334,-1.557502 -3.242103,-0.238943 -4.172279,0.03973 -4.172279,1.250002 0,1.18345 1.100725,1.5575 4.583333,1.5575 3.219229,0 4.460995,-0.37203 4.17228,-1.25 z m 5.444387,6.05 c -1.367663,-1.36766 -1.568371,-5.67116 -0.353772,-7.585436 0.448581,-0.706987 2.416032,-1.545146 4.372116,-1.862574 2.78591,-0.452091 4.01425,-0.119405 5.66909,1.535432 3.27452,3.274528 2.56929,4.112578 -3.46075,4.112578 -4.76756,0 -5.525403,0.25301 -5.241819,1.75 0.403317,2.12904 6.250649,2.96338 8.380459,1.19579 1.14598,-0.95108 1.43468,-0.86419 1.43468,0.43177 0,1.27125 -1.039,1.62244 -4.8,1.62244 -2.64,0 -5.340004,-0.54 -6.000004,-1.2 z m 9.555614,-6.05 c -0.22608,-0.6875 -2.28858,-1.388378 -4.58333,-1.557502 -3.242108,-0.238943 -4.172284,0.03973 -4.172284,1.250002 0,1.18345 1.100725,1.5575 4.583334,1.5575 3.21923,0 4.461,-0.37203 4.17228,-1.25 z m 5.24439,0.25 c 0,-4.000004 0.42857,-7.000004 1,-7.000004 0.57143,0 1,3 1,7.000004 0,4 -0.42857,7 -1,7 -0.57143,0 -1,-3 -1,-7 z m 20,2.06215 c 0,-4.023818 0.32394,-4.943802 1.75,-4.969976 0.9625,-0.01767 3.13993,-0.311057 4.83874,-0.65198 4.15416,-0.833673 6.41126,1.500873 6.41126,6.631236 0,5.2901 -1.80565,5.02538 -2.1925,-0.32143 -0.30681,-4.240421 -0.31652,-4.250004 -4.3075,-4.250004 -3.99098,0 -4.00069,0.0096 -4.3075,4.250004 -0.42702,5.902 -2.1925,5.34812 -2.1925,-0.68785 z m 16.2,3.73785 c -1.69902,-1.69902 -1.48823,-6.36892 0.37143,-8.228575 0.86428,-0.864286 3.02828,-1.571429 4.80887,-1.571429 3.52588,0 7.60298,2.350056 6.31375,3.639284 -0.44154,0.44154 -1.16163,0.22219 -1.60021,-0.48745 -0.49313,-0.797893 -2.28493,-1.168432 -4.69563,-0.971035 -3.72763,0.305233 -3.89821,0.472355 -3.89821,3.819205 0,3.24535 0.24571,3.52349 3.37716,3.82284 1.85743,0.17757 3.85993,-0.15993 4.45,-0.75 1.55592,-1.55592 2.70303,-1.31508 2.03447,0.42716 -0.71154,1.85423 -9.37456,2.08707 -11.16163,0.3 z m 14.8,-3.8 c 0,-2.75 0.45,-5.000004 1,-5.000004 0.55,0 1,2.250004 1,5.000004 0,2.75 -0.45,5 -1,5 -0.55,0 -1,-2.25 -1,-5 z m 7.18025,0.75 c -0.0991,-2.6125 -0.64062,-4.750004 -1.2033,-4.750004 -0.56268,0 -0.28593,-1.125 0.61501,-2.5 1.21123,-1.848569 2.45495,-2.46917 4.77305,-2.381685 l 3.13499,0.118315 -3,0.641505 c -3.48291,0.744769 -3.63317,2.335957 -0.30902,3.272185 2.19666,0.618675 2.17787,0.655171 -0.38619,0.75 -2.47886,0.09168 -2.72527,0.480967 -3.06975,4.849684 l -0.37454,4.75 z m -144.721373,2.18347 c -0.920344,-1.48915 0.146724,-2.29879 2.061373,-1.56407 0.883581,0.33906 1.326431,1.06965 0.984111,1.62354 -0.810575,1.31154 -2.215105,1.28411 -3.045484,-0.0595 z m 4.987268,-0.0206 c -1.030521,-1.66742 1.287209,-3.57951 2.666719,-2.2 1.153924,1.15392 0.431721,3.28713 -1.112868,3.28713 -0.485081,0 -1.184314,-0.48921 -1.553851,-1.08713 z m -7.337089,-4.28146 c -0.891523,-1.07422 -0.90991,-1.63646 -0.07049,-2.155254 1.630922,-1.007965 3.654248,1.231014 2.319044,2.566224 -0.723175,0.72318 -1.411746,0.59733 -2.248558,-0.41097 z m 9.89094,-1.13141 c 0,-0.825004 0.675,-1.500004 1.5,-1.500004 0.825,0 1.5,0.675 1.5,1.500004 0,0.825 -0.675,1.5 -1.5,1.5 -0.825,0 -1.5,-0.675 -1.5,-1.5 z M 12.853474,97.369745 c -2.078466,-2.296679 -2.107325,-4.576064 -0.08356,-6.59983 2.380786,-2.380787 6.137101,-1.945902 8.020528,0.928571 1.517417,2.315871 1.517417,2.684129 0,5 -1.947512,2.972279 -5.576797,3.279221 -7.936969,0.671259 z m 5.193405,-1.056399 c 1.815504,-1.150536 1.056848,-4.509428 -1.112901,-4.927283 -1.943628,-0.374309 -3.256868,2.011355 -2.373866,4.312423 0.651063,1.696643 1.534052,1.85235 3.486767,0.61486 z m 21.151607,0.88514 c -2.338159,-2.338159 -2.504233,-3.92816 -0.672014,-6.43387 2.792896,-3.819512 9.672014,-1.281599 9.672014,3.568296 0,1.845274 -3.55224,4.865574 -5.722506,4.865574 -0.702622,0 -2.177494,-0.9 -3.277494,-2 z m 6,-3.031385 c 0,-2.358591 -2.644547,-3.724068 -4.2,-2.168615 -1.555453,1.555453 -0.189976,4.2 2.168615,4.2 1.37518,0 2.031385,-0.656205 2.031385,-2.031385 z m -20,2.531385 c 0,-0.825 0.675,-1.5 1.5,-1.5 0.825,0 1.5,0.675 1.5,1.5 0,0.825 -0.675,1.5 -1.5,1.5 -0.825,0 -1.5,-0.675 -1.5,-1.5 z m 5.5,0.5 c -0.815505,-1.319515 0.380209,-3.192069 1.569098,-2.457295 1.214616,0.750674 1.206724,3.457295 -0.01008,3.457295 -0.517541,0 -1.219098,-0.45 -1.559018,-1 z m 132.500004,-2 c 0,-0.55 0.47656,-1 1.05902,-1 0.58246,0 0.7809,0.45 0.44098,1 -0.33992,0.55 -0.81648,1 -1.05902,1 -0.24254,0 -0.44098,-0.45 -0.44098,-1 z M 25.769915,89.627057 c -3.233596,-3.233596 -0.782393,-8.428571 3.976947,-8.428571 1.462402,0 3.047742,0.980158 4.043581,2.5 1.517417,2.315871 1.517417,2.684129 0,5 -1.883427,2.874473 -5.639742,3.309358 -8.020528,0.928571 z m 4.846784,-1.03556 c 2.050029,-0.78667 2.044353,-4.00153 -0.0085,-4.789267 -2.08661,-0.800724 -3.409713,0.08733 -3.409713,2.288606 0,2.775265 0.929868,3.455529 3.418213,2.500661 z"
       style="fill:#ffffff;fill-opacity:1" />
    <path
       id="path1406"
       d="m 26.291054,119.81003 c -1.618597,-1.95029 -1.024,-6.63987 1.002655,-7.90793 2.62656,-1.64342 6.791216,-0.004 7.536802,2.9664 0.364366,1.45175 0.213337,3.35739 -0.335619,4.23477 -1.339342,2.14061 -6.635206,2.59684 -8.203838,0.70676 z m 5.949085,-2.16173 c 1.06278,-1.28057 0.997114,-1.83961 -0.377556,-3.21428 -1.552129,-1.55213 -1.776065,-1.55213 -3.328194,0 -1.37467,1.37467 -1.440336,1.93371 -0.377556,3.21428 0.707598,0.85261 1.626342,1.55019 2.041653,1.55019 0.415311,0 1.334055,-0.69758 2.041653,-1.55019 z m -19.041653,-5.44981 c -2.587385,-2.58738 -2.520708,-3.5702 0.443297,-6.53421 1.916926,-1.91692 2.940241,-2.26057 4.75,-1.59511 3.415424,1.25586 4.650074,5.53992 2.334108,8.09904 -2.328795,2.57329 -4.973758,2.58393 -7.527405,0.0303 z m 6,-3.03138 c 0,-2.3586 -2.644547,-3.72407 -4.2,-2.16862 -1.555453,1.55545 -0.189976,4.2 2.168615,4.2 1.37518,0 2.031385,-0.65621 2.031385,-2.03138 z m 21.222506,3.47468 c -3.885843,-2.72175 -1.968355,-9.4433 2.693935,-9.4433 2.337946,0 5.083559,3.11746 5.083559,5.77204 0,1.8068 -3.271979,5.22796 -5,5.22796 -0.305243,0 -1.555115,-0.70052 -2.777494,-1.5567 z m 5.046853,-2.6933 c 0.70928,-2.03336 -0.351523,-3.75 -2.317331,-3.75 -2.204664,0 -3.335102,1.55934 -2.572026,3.54789 0.682096,1.77751 4.287833,1.92656 4.889357,0.20211 z m 136.416145,0.75773 2.13051,-1.49227 -2.98311,-5.50773 c -1.64072,-3.02925 -2.58899,-5.507734 -2.10727,-5.507734 0.48171,0 1.91359,2.136004 3.18195,4.746674 l 2.30611,4.74666 2.46202,-4.84446 c 1.35412,-2.66446 2.6855,-4.620996 2.95863,-4.347862 0.86755,0.867541 -5.46601,12.420422 -7.167,13.073152 -2.72266,1.04478 -3.02776,0.70667 -0.78184,-0.86643 z M 53.198486,101.19849 v -7.000004 l 7.25,0.19268 7.25,0.192679 -6.25,0.355038 c -5.833751,0.331392 -6.25,0.515036 -6.25,2.757417 0,2.216134 0.445769,2.43035 5.75,2.7632 l 5.75,0.36082 -5.75,0.18908 -5.75,0.18909 v 3.5 c 0,1.925 -0.45,3.5 -1,3.5 -0.571429,0 -1,-3 -1,-7 z m 16.078947,2.08333 c -0.04342,-2.97917 0.192323,-5.145397 0.523876,-4.813845 0.331552,0.331553 1.633258,0.211052 2.892678,-0.267779 2.94325,-1.119021 6.192446,-0.26111 6.99457,1.846834 0.503698,1.32369 0.378498,1.40337 -0.630825,0.40146 -0.692585,-0.687504 -2.723855,-1.250004 -4.513933,-1.250004 -2.982802,0 -3.307082,0.313262 -3.881893,3.750004 -1.007526,6.02389 -1.300505,6.09443 -1.384473,0.33333 z m 12.97124,3.47714 c -2.043928,-2.46278 -0.860212,-6.897785 2.235214,-8.374619 3.642478,-1.737835 8.092351,-0.359997 8.53415,2.642469 0.292132,1.98534 -0.115435,2.17168 -4.75,2.17168 -4.480677,0 -5.069551,0.24353 -5.069551,2.09651 0,1.89088 0.481197,2.06253 4.90596,1.75 2.698278,-0.19058 4.69672,-0.009 4.440983,0.40349 -0.842631,1.35915 -9.052796,0.80935 -10.296756,-0.68953 z m 9.705426,-5.81047 c -0.638412,-1.941392 -8.369931,-2.197458 -9.097551,-0.30131 -0.489488,1.27559 0.302616,1.55131 4.456656,1.55131 3.594121,0 4.933332,-0.36071 4.640895,-1.25 z m 5.294574,5.81047 c -2.043928,-2.46278 -0.860212,-6.897785 2.235214,-8.374619 3.642483,-1.737835 8.092353,-0.359997 8.534153,2.642469 0.29213,1.98534 -0.11543,2.17168 -4.75,2.17168 -4.48068,0 -5.069554,0.24353 -5.069554,2.09651 0,1.89088 0.481197,2.06253 4.905964,1.75 2.69828,-0.19058 4.69672,-0.009 4.44098,0.40349 -0.84263,1.35915 -9.052797,0.80935 -10.296757,-0.68953 z m 9.705427,-5.81047 c -0.63841,-1.941392 -8.369932,-2.197458 -9.097552,-0.30131 -0.489488,1.27559 0.302616,1.55131 4.456662,1.55131 3.59412,0 4.93333,-0.36071 4.64089,-1.25 z m 5.5806,0.25 c 0,-4.125004 0.17651,-5.812504 0.39226,-3.750004 0.21574,2.0625 0.21574,5.437504 0,7.500004 -0.21575,2.0625 -0.39226,0.375 -0.39226,-3.75 z m 5.37337,6.37624 c -0.39027,-0.39026 -0.70958,-1.48579 -0.70958,-2.4345 0,-2.10463 4.10023,-3.29827 8.22089,-2.39322 2.52113,0.55373 2.90988,0.37455 2.60086,-1.19874 -0.29224,-1.48784 -1.28901,-1.849784 -5.09416,-1.849784 -2.60196,0 -4.7301,-0.28125 -4.72921,-0.625 0.003,-1.198689 6.02145,-1.81796 8.50205,-0.874837 2.13781,0.812795 2.49957,1.580426 2.49957,5.303961 v 4.35363 l -5.29042,0.21403 c -2.90974,0.11772 -5.60974,-0.10527 -6,-0.49554 z m 9.83154,-1.44277 c 0.91268,-1.47674 0.23373,-1.94191 -3.66722,-2.51249 -3.71189,-0.54293 -6.51742,0.72876 -5.443,2.46722 0.87778,1.42026 8.23782,1.45684 9.11022,0.0453 z m 4.45888,-2.93347 c 0,-2.75 0.45,-5.000004 1,-5.000004 0.55,0 1,2.250004 1,5.000004 0,2.75 -0.45,5 -1,5 -0.55,0 -1,-2.25 -1,-5 z m 10.8075,0.75 c -0.29957,-4.140397 -0.41066,-4.263282 -4.3075,-4.764864 -3.3963,-0.437155 -3.64422,-0.615917 -1.64268,-1.184446 2.93573,-0.833879 6.66396,0.509387 7.5063,2.70449 0.96453,2.51354 0.76107,7.49482 -0.30612,7.49482 -0.51838,0 -1.08088,-1.9125 -1.25,-4.25 z m 5.3925,3.05 c -1.32608,-1.32608 -1.58273,-5.68802 -0.43469,-7.38772 1.93608,-2.866394 11.24713,-2.482382 11.21938,0.46272 -0.009,1.00119 -0.29735,1.21312 -0.75,0.55205 -1.14966,-1.678959 -4.16367,-2.482983 -6.81415,-1.817754 -2.04198,0.512505 -2.42054,1.216134 -2.42054,4.499114 v 3.89159 h 4.5 c 2.475,0 4.5,-0.45 4.5,-1 0,-0.55 0.5051,-1 1.12244,-1 0.77551,0 0.73766,0.46364 -0.12244,1.5 -1.50511,1.81354 -9.07615,2.02385 -10.8,0.3 z m 15.09966,-3.8 c 0,-3.025 0.18747,-4.262504 0.41659,-2.75 0.22913,1.5125 0.22913,3.9875 0,5.5 -0.22912,1.5125 -0.41659,0.275 -0.41659,-2.75 z m 6.88059,0.75 c -0.11489,-3.0275 -0.63354,-4.755557 -1.43025,-4.765317 -0.84022,-0.01029 -0.89827,-0.256158 -0.17706,-0.75 0.59012,-0.404078 1.3635,-1.522187 1.71862,-2.484687 0.41774,-1.132225 1.62754,-1.714812 3.42706,-1.65032 2.72085,0.09751 2.72858,0.114434 0.35552,0.777583 -3.46638,0.968675 -3.68464,2.904501 -0.38343,3.400762 l 2.80929,0.422311 -2.69521,0.149832 c -2.47015,0.13732 -2.72648,0.546474 -3.06975,4.899836 l -0.37454,4.75 z m -144.486401,2.61052 c -0.798931,-0.79893 0.104186,-2.36052 1.365164,-2.36052 0.517541,0 0.940983,0.675 0.940983,1.5 0,1.54641 -1.179963,1.9867 -2.306147,0.86052 z m 5.945627,-0.0544 c -1.126184,-1.12616 -0.68589,-2.30612 0.86052,-2.30612 0.825,0 1.5,0.42344 1.5,0.94098 0,1.26098 -1.561589,2.1641 -2.36052,1.36517 z m -8.63948,-5.88946 c 0,-0.870831 0.534375,-1.405206 1.1875,-1.187497 1.854223,0.618077 2.16176,2.770837 0.395833,2.770837 -0.870833,0 -1.583333,-0.7125 -1.583333,-1.58334 z m 10,0.0833 c 0,-0.825004 0.675,-1.500004 1.5,-1.500004 0.825,0 1.5,0.675 1.5,1.500004 0,0.825 -0.675,1.5 -1.5,1.5 -0.825,0 -1.5,-0.675 -1.5,-1.5 z M 12.853474,97.369745 c -2.078466,-2.296679 -2.107325,-4.576064 -0.08356,-6.59983 2.380786,-2.380787 6.137101,-1.945902 8.020528,0.928571 1.517417,2.315871 1.517417,2.684129 0,5 -1.947512,2.972279 -5.576797,3.279221 -7.936969,0.671259 z m 5.193405,-1.056399 c 1.815504,-1.150536 1.056848,-4.509428 -1.112901,-4.927283 -1.943628,-0.374309 -3.256868,2.011355 -2.373866,4.312423 0.651063,1.696643 1.534052,1.85235 3.486767,0.61486 z m 21.151607,0.88514 c -2.338159,-2.338159 -2.504233,-3.92816 -0.672014,-6.43387 2.792896,-3.819512 9.672014,-1.281599 9.672014,3.568296 0,1.845274 -3.55224,4.865574 -5.722506,4.865574 -0.702622,0 -2.177494,-0.9 -3.277494,-2 z m 6,-3.031385 c 0,-2.358591 -2.644547,-3.724068 -4.2,-2.168615 -1.555453,1.555453 -0.189976,4.2 2.168615,4.2 1.37518,0 2.031385,-0.656205 2.031385,-2.031385 z m -20,2.531385 c 0,-0.825 0.675,-1.5 1.5,-1.5 0.825,0 1.5,0.675 1.5,1.5 0,0.825 -0.675,1.5 -1.5,1.5 -0.825,0 -1.5,-0.675 -1.5,-1.5 z m 5.63948,0.806147 c -1.126184,-1.126184 -0.68589,-2.306147 0.86052,-2.306147 0.825,0 1.5,0.423442 1.5,0.940983 0,1.260978 -1.561589,2.164095 -2.36052,1.365164 z m -5.068051,-7.877576 c -3.233596,-3.233596 -0.782393,-8.428571 3.976947,-8.428571 1.462402,0 3.047742,0.980158 4.043581,2.5 1.517417,2.315871 1.517417,2.684129 0,5 -1.883427,2.874473 -5.639742,3.309358 -8.020528,0.928571 z m 4.846784,-1.03556 c 2.050029,-0.78667 2.044353,-4.00153 -0.0085,-4.789267 -2.08661,-0.800724 -3.409713,0.08733 -3.409713,2.288606 0,2.775265 0.929868,3.455529 3.418213,2.500661 z"
       style="fill:#ffffff;fill-opacity:1" />
    <path
       id="path1404"
       d="m 26.769915,119.62706 c -2.087908,-2.08791 -1.987069,-4.74245 0.257312,-6.77358 2.376883,-2.15105 4.462686,-2.09544 6.516271,0.17375 2.15105,2.37688 2.095433,4.46269 -0.173753,6.51627 -2.296679,2.07847 -4.576064,2.10733 -6.59983,0.0836 z m 5.928571,-3.42857 c 0,-1.83273 -0.601738,-2.58545 -2.254471,-2.82014 -1.352279,-0.19202 -2.495586,0.3082 -2.856989,1.25 -0.995668,2.59467 0.399883,4.73919 2.856989,4.39028 1.652733,-0.23469 2.254471,-0.98741 2.254471,-2.82014 z m -18.3845,-3.63165 c -2.325699,-1.62899 -2.793329,-5.29052 -0.9155,-7.16835 1.877829,-1.87783 5.539363,-1.4102 7.168346,0.9155 3.028074,4.32318 -1.929665,9.28092 -6.252846,6.25285 z m 4.873931,-1.85562 c 1.778589,-2.14306 0.487853,-4.51273 -2.458046,-4.51273 -1.98526,0 -2.531385,0.5034 -2.531385,2.33333 0,3.84248 2.648927,4.99954 4.989431,2.1794 z m 19.793231,-0.0904 c -1.568922,-3.44341 -0.01494,-5.82935 4.061002,-6.23516 2.520419,-0.25094 3.36156,0.16913 4.252032,2.1235 1.627972,3.57301 -0.30644,6.68932 -4.152319,6.68932 -2.23891,0 -3.280177,-0.64509 -4.160715,-2.57766 z m 6.885467,-0.99988 c 0.802431,-2.0911 -1.866362,-4.66736 -3.990588,-3.85222 -1.671794,0.64153 -2.277664,3.4963 -1.010874,4.76309 1.246218,1.24622 4.393673,0.673 5.001462,-0.91087 z m 136.017375,1.08527 2.13051,-1.49227 -2.98311,-5.50773 c -1.64072,-3.02924 -2.58899,-5.507724 -2.10727,-5.507724 0.48171,0 1.91359,2.136004 3.18195,4.746674 l 2.30611,4.74666 2.46202,-4.84446 c 1.35412,-2.66446 2.6855,-4.620996 2.95863,-4.347862 0.86755,0.867541 -5.46601,12.420422 -7.167,13.073152 -2.72266,1.04478 -3.02776,0.70667 -0.78184,-0.86643 z M 53.198486,101.19849 v -7.000004 l 7.25,0.19268 7.25,0.192679 -6.25,0.355038 c -5.833751,0.331392 -6.25,0.515036 -6.25,2.757417 0,2.216134 0.445769,2.43035 5.75,2.7632 l 5.75,0.36082 -5.75,0.18908 -5.75,0.18909 v 3.5 c 0,1.925 -0.45,3.5 -1,3.5 -0.571429,0 -1,-3 -1,-7 z m 16.078947,2.08333 c -0.04342,-2.97917 0.192323,-5.145397 0.523876,-4.813845 0.331552,0.331553 1.633258,0.211052 2.892678,-0.267779 2.94325,-1.119021 6.192446,-0.26111 6.99457,1.846834 0.503698,1.32369 0.378498,1.40337 -0.630825,0.40146 -0.692585,-0.687504 -2.723855,-1.250004 -4.513933,-1.250004 -2.982802,0 -3.307082,0.313262 -3.881893,3.750004 -1.007526,6.02389 -1.300505,6.09443 -1.384473,0.33333 z m 12.97124,3.47714 c -2.043928,-2.46278 -0.860212,-6.897785 2.235214,-8.374619 3.642478,-1.737835 8.092351,-0.359997 8.53415,2.642469 0.292132,1.98534 -0.115435,2.17168 -4.75,2.17168 -4.480677,0 -5.069551,0.24353 -5.069551,2.09651 0,1.89088 0.481197,2.06253 4.90596,1.75 2.698278,-0.19058 4.69672,-0.009 4.440983,0.40349 -0.842631,1.35915 -9.052796,0.80935 -10.296756,-0.68953 z m 9.705426,-5.81047 c -0.638412,-1.941392 -8.369931,-2.197458 -9.097551,-0.30131 -0.489488,1.27559 0.302616,1.55131 4.456656,1.55131 3.594121,0 4.933332,-0.36071 4.640895,-1.25 z m 5.294574,5.81047 c -2.043928,-2.46278 -0.860212,-6.897785 2.235214,-8.374619 3.642483,-1.737835 8.092353,-0.359997 8.534153,2.642469 0.29213,1.98534 -0.11543,2.17168 -4.75,2.17168 -4.48068,0 -5.069554,0.24353 -5.069554,2.09651 0,1.89088 0.481197,2.06253 4.905964,1.75 2.69828,-0.19058 4.69672,-0.009 4.44098,0.40349 -0.84263,1.35915 -9.052797,0.80935 -10.296757,-0.68953 z m 9.705427,-5.81047 c -0.63841,-1.941392 -8.369932,-2.197458 -9.097552,-0.30131 -0.489488,1.27559 0.302616,1.55131 4.456662,1.55131 3.59412,0 4.93333,-0.36071 4.64089,-1.25 z m 5.5806,0.25 c 0,-4.125004 0.17651,-5.812504 0.39226,-3.750004 0.21574,2.0625 0.21574,5.437504 0,7.500004 -0.21575,2.0625 -0.39226,0.375 -0.39226,-3.75 z m 5.37337,6.37624 c -0.39027,-0.39026 -0.70958,-1.48579 -0.70958,-2.4345 0,-2.10463 4.10023,-3.29827 8.22089,-2.39322 2.52113,0.55373 2.90988,0.37455 2.60086,-1.19874 -0.29224,-1.48784 -1.28901,-1.849784 -5.09416,-1.849784 -2.60196,0 -4.7301,-0.28125 -4.72921,-0.625 0.003,-1.198689 6.02145,-1.81796 8.50205,-0.874837 2.13781,0.812795 2.49957,1.580426 2.49957,5.303961 v 4.35363 l -5.29042,0.21403 c -2.90974,0.11772 -5.60974,-0.10527 -6,-0.49554 z m 9.83154,-1.44277 c 0.91268,-1.47674 0.23373,-1.94191 -3.66722,-2.51249 -3.71189,-0.54293 -6.51742,0.72876 -5.443,2.46722 0.87778,1.42026 8.23782,1.45684 9.11022,0.0453 z m 4.45888,-2.93347 c 0,-2.75 0.45,-5.000004 1,-5.000004 0.55,0 1,2.250004 1,5.000004 0,2.75 -0.45,5 -1,5 -0.55,0 -1,-2.25 -1,-5 z m 10.8075,0.75 c -0.29957,-4.140397 -0.41066,-4.263282 -4.3075,-4.764864 -3.3963,-0.437155 -3.64422,-0.615917 -1.64268,-1.184446 2.93573,-0.833879 6.66396,0.509387 7.5063,2.70449 0.96453,2.51354 0.76107,7.49482 -0.30612,7.49482 -0.51838,0 -1.08088,-1.9125 -1.25,-4.25 z m 5.3925,3.05 c -1.32608,-1.32608 -1.58273,-5.68802 -0.43469,-7.38772 1.93608,-2.866394 11.24713,-2.482382 11.21938,0.46272 -0.009,1.00119 -0.29735,1.21312 -0.75,0.55205 -1.14966,-1.678959 -4.16367,-2.482983 -6.81415,-1.817754 -2.04198,0.512505 -2.42054,1.216134 -2.42054,4.499114 v 3.89159 h 4.5 c 2.475,0 4.5,-0.45 4.5,-1 0,-0.55 0.5051,-1 1.12244,-1 0.77551,0 0.73766,0.46364 -0.12244,1.5 -1.50511,1.81354 -9.07615,2.02385 -10.8,0.3 z m 15.09966,-3.8 c 0,-3.025 0.18747,-4.262504 0.41659,-2.75 0.22913,1.5125 0.22913,3.9875 0,5.5 -0.22912,1.5125 -0.41659,0.275 -0.41659,-2.75 z m 6.88059,0.75 c -0.11489,-3.0275 -0.63354,-4.755557 -1.43025,-4.765317 -0.84022,-0.01029 -0.89827,-0.256158 -0.17706,-0.75 0.59012,-0.404078 1.3635,-1.522187 1.71862,-2.484687 0.41774,-1.132225 1.62754,-1.714812 3.42706,-1.65032 2.72085,0.09751 2.72858,0.114434 0.35552,0.777583 -3.46638,0.968675 -3.68464,2.904501 -0.38343,3.400762 l 2.80929,0.422311 -2.69521,0.149832 c -2.47015,0.13732 -2.72648,0.546474 -3.06975,4.899836 l -0.37454,4.75 z m -144.486401,2.61052 c -0.798931,-0.79893 0.104186,-2.36052 1.365164,-2.36052 0.517541,0 0.940983,0.675 0.940983,1.5 0,1.54641 -1.179963,1.9867 -2.306147,0.86052 z m 5.945627,-0.0544 c -1.126184,-1.12616 -0.68589,-2.30612 0.86052,-2.30612 0.825,0 1.5,0.42344 1.5,0.94098 0,1.26098 -1.561589,2.1641 -2.36052,1.36517 z m -8.63948,-5.88946 c 0,-0.870831 0.534375,-1.405206 1.1875,-1.187497 1.854223,0.618077 2.16176,2.770837 0.395833,2.770837 -0.870833,0 -1.583333,-0.7125 -1.583333,-1.58334 z m 10,0.0833 c 0,-0.825004 0.675,-1.500004 1.5,-1.500004 0.825,0 1.5,0.675 1.5,1.500004 0,0.825 -0.675,1.5 -1.5,1.5 -0.825,0 -1.5,-0.675 -1.5,-1.5 z m -19.25,-2.580103 c -2.533693,-1.47574 -2.294127,-6.558326 0.376493,-7.987598 3.338686,-1.786811 6.873507,0.275954 6.873507,4.011074 0,4.165944 -3.566365,6.122047 -7.25,3.976524 z m 4.75,-3.933596 c 0,-1.772432 -0.609481,-2.573266 -2.122722,-2.789177 -2.541666,-0.362647 -3.935688,2.425102 -2.236492,4.472509 1.792966,2.160392 4.359214,1.169423 4.359214,-1.683332 z m 6.5,2.513695 c 0,-0.825 0.675,-1.5 1.5,-1.5 0.825,0 1.5,0.675 1.5,1.5 0,0.825 -0.675,1.5 -1.5,1.5 -0.825,0 -1.5,-0.675 -1.5,-1.5 z m 5.63948,0.806147 c -1.126184,-1.126184 -0.68589,-2.306147 0.86052,-2.306147 0.825,0 1.5,0.423442 1.5,0.940983 0,1.260978 -1.561589,2.164095 -2.36052,1.365164 z m 8.6056,-0.461067 c -2.875177,-2.875177 -0.764034,-7.84508 3.332475,-7.84508 2.934991,0 4.635696,2.279597 4.244703,5.689528 -0.264172,2.303889 -0.86389,2.86366 -3.327178,3.105552 -1.652706,0.162294 -3.565206,-0.265206 -4.25,-0.95 z m 5.649728,-1.218332 c 2.481829,-2.99042 -1.617168,-6.761531 -4.363887,-4.014812 -1.147144,1.147144 -1.26996,2.007158 -0.493755,3.45751 1.210368,2.261592 3.249091,2.495488 4.857642,0.557302 z M 26.248673,89.758958 c -1.609036,-1.93877 -0.945816,-6.611114 1.122154,-7.905509 2.851534,-1.784849 6.827659,0.712533 6.827659,4.288414 0,4.384618 -5.308346,6.799868 -7.949813,3.617095 z m 5.76995,-3.314943 C 32.416122,83.644743 29.621688,82.346713 27.5842,84.3842 c -2.000907,2.000908 -0.706373,5.002102 1.991564,4.617158 1.321116,-0.188498 2.243616,-1.154231 2.442859,-2.557343 z"
       style="fill:#ffffff;fill-opacity:1" />
    <path
       id="path1402"
       d="m 26.769915,119.62706 c -2.087908,-2.08791 -1.987069,-4.74245 0.257312,-6.77358 2.376883,-2.15105 4.462686,-2.09544 6.516271,0.17375 2.15105,2.37688 2.095433,4.46269 -0.173753,6.51627 -2.296679,2.07847 -4.576064,2.10733 -6.59983,0.0836 z m 5.928571,-3.42857 c 0,-1.83273 -0.601738,-2.58545 -2.254471,-2.82014 -1.352279,-0.19202 -2.495586,0.3082 -2.856989,1.25 -0.995668,2.59467 0.399883,4.73919 2.856989,4.39028 1.652733,-0.23469 2.254471,-0.98741 2.254471,-2.82014 z m -18.3845,-3.63165 c -2.325699,-1.62899 -2.793329,-5.29052 -0.9155,-7.16835 1.877829,-1.87783 5.539363,-1.4102 7.168346,0.9155 3.028074,4.32318 -1.929665,9.28092 -6.252846,6.25285 z m 4.873931,-1.85562 c 1.778589,-2.14306 0.487853,-4.51273 -2.458046,-4.51273 -1.98526,0 -2.531385,0.5034 -2.531385,2.33333 0,3.84248 2.648927,4.99954 4.989431,2.1794 z m 19.793231,-0.0904 c -1.568922,-3.44341 -0.01494,-5.82935 4.061002,-6.23516 2.520419,-0.25094 3.36156,0.16913 4.252032,2.1235 1.627972,3.57301 -0.30644,6.68932 -4.152319,6.68932 -2.23891,0 -3.280177,-0.64509 -4.160715,-2.57766 z m 6.885467,-0.99988 c 0.802431,-2.0911 -1.866362,-4.66736 -3.990588,-3.85222 -1.671794,0.64153 -2.277664,3.4963 -1.010874,4.76309 1.246218,1.24622 4.393673,0.673 5.001462,-0.91087 z m 137.095165,-2.67245 c -2.71396,-4.1633 -4.93769,-8.975825 -3.8316,-8.29222 0.60329,0.372852 1.99961,2.44738 3.10292,4.61007 1.10332,2.16268 2.20083,3.93215 2.43892,3.93215 0.23808,0 1.3594,-2.09454 2.4918,-4.65454 1.13241,-2.559997 2.30872,-4.404743 2.61403,-4.099436 0.52779,0.527784 -4.20895,10.753976 -4.9812,10.753976 -0.20248,0 -1.02817,-1.0125 -1.83487,-2.25 z M 53.198486,101.36516 v -7.166674 l 7.25,0.19586 7.25,0.195861 -6.65,0.34755 -6.65,0.34755 v 6.023263 c 0,3.31279 -0.27,6.29325 -0.6,6.62325 -0.33,0.33 -0.6,-2.625 -0.6,-6.56666 z m 16.125167,1.88333 c -0.0735,-3.20044 0.239723,-5.057879 0.758851,-4.500004 0.486211,0.5225 0.542536,2.975004 0.125167,5.450004 l -0.758852,4.5 z m 12.910017,3.01574 c -1.300237,-2.42951 -1.350878,-5.37889 -0.07886,-4.59273 0.525979,0.32507 0.755706,1.13913 0.510505,1.80902 -0.953601,2.60521 1.222119,3.9441 5.815001,3.57842 2.489998,-0.19825 4.318664,-0.0229 4.063702,0.38955 -0.254963,0.4125 -2.446178,0.75 -4.869367,0.75 -3.332429,0 -4.657998,-0.47124 -5.440983,-1.93426 z m 15,0 c -1.300237,-2.42951 -1.350878,-5.37889 -0.07886,-4.59273 0.525979,0.32507 0.755706,1.13913 0.510505,1.80902 -0.953601,2.60521 1.222119,3.9441 5.814995,3.57842 2.49,-0.19825 4.31867,-0.0229 4.0637,0.38955 -0.25496,0.4125 -2.44617,0.75 -4.86936,0.75 -3.332428,0 -4.657997,-0.47124 -5.440982,-1.93426 z m 15.30103,-5.06574 c 0,-4.125004 0.17651,-5.812504 0.39226,-3.750004 0.21574,2.0625 0.21574,5.437504 0,7.500004 -0.21575,2.0625 -0.39226,0.375 -0.39226,-3.75 z m 4.99962,5.43278 c -0.33077,-0.86197 -0.11682,-2.05179 0.47544,-2.64405 0.76911,-0.76911 0.92127,-0.48197 0.53247,1.00482 -0.48007,1.83577 -0.0305,2.12744 3.80595,2.46934 l 4.35031,0.3877 -4.28138,0.1747 c -3.08027,0.1257 -4.45011,-0.26496 -4.88279,-1.39251 z m 10.814,-0.18278 c -0.0824,-1.2375 -0.71233,-2.25689 -1.39983,-2.26531 -0.83073,-0.0102 -0.74687,-0.33536 0.25,-0.96949 1.24028,-0.78896 1.2821,-1.30575 0.24153,-2.98469 -0.71766,-1.157918 -0.83328,-2.030514 -0.26906,-2.030514 1.33661,0 2.28115,4.105024 1.75544,7.629174 -0.3254,2.18138 -0.46423,2.33048 -0.57808,0.62083 z m 3.97534,-3.2 c -0.0735,-3.20044 0.23972,-5.057879 0.75885,-4.500004 0.48621,0.5225 0.54253,2.975004 0.12516,5.450004 l -0.75885,4.5 z m 11.04293,0.78333 c -0.0957,-2.65617 -0.70663,-4.883967 -1.4181,-5.171053 -0.97906,-0.395059 -0.97226,-0.521498 0.0314,-0.583334 1.78139,-0.109752 2.42115,2.040717 1.95336,6.565897 -0.38538,3.72788 -0.40408,3.70108 -0.56664,-0.81151 z m 4.67485,1.72132 c -1.27074,-2.78896 0.12153,-7.554654 2.20704,-7.554654 0.60108,0 0.38572,0.707143 -0.47856,1.571429 -1.67566,1.675665 -1.94304,3.296605 -0.96444,5.846785 0.69567,1.8129 8.87959,2.28099 9.73468,0.55679 0.27958,-0.56375 0.3944,-0.45125 0.25516,0.25 -0.15079,0.75941 -2.14099,1.3982 -4.92154,1.57965 -4.17621,0.27253 -4.79108,0.0353 -5.83234,-2.25 z m 15.45671,-2.55465 c 0,-3.025 0.18747,-4.262504 0.41659,-2.75 0.22913,1.5125 0.22913,3.9875 0,5.5 -0.22912,1.5125 -0.41659,0.275 -0.41659,-2.75 z m 6.58902,0.1875 c -0.52246,-7.140991 0.35034,-9.212459 3.8291,-9.087824 l 2.78222,0.09968 -2.5,0.694806 c -2.22516,0.618422 -2.53145,1.294567 -2.78603,6.150328 -0.39936,7.61706 -0.86921,8.37681 -1.32529,2.14301 z m -143.888684,2.3125 c 0,-0.825 0.45,-1.5 1,-1.5 0.55,0 1,0.675 1,1.5 0,0.825 -0.45,1.5 -1,1.5 -0.55,0 -1,-0.675 -1,-1.5 z m 5,-0.5 c 0,-0.55 0.45,-1 1,-1 0.55,0 1,0.45 1,1 0,0.55 -0.45,1 -1,1 -0.55,0 -1,-0.45 -1,-1 z m 60.344085,-4.53269 c -0.646213,-1.379351 -0.742612,-2.467314 -0.218615,-2.467314 1.111134,0 2.208521,2.511824 1.71886,3.934324 -0.189382,0.55017 -0.864492,-0.10999 -1.500245,-1.46701 z m 15.000009,0 c -0.64622,-1.379351 -0.74262,-2.467314 -0.21862,-2.467314 1.11113,0 2.20852,2.511824 1.71886,3.934324 -0.18938,0.55017 -0.86449,-0.10999 -1.50024,-1.46701 z m -83.344094,0.53269 c 0,-0.55 0.45,-1 1,-1 0.55,0 1,0.45 1,1 0,0.55 -0.45,1 -1,1 -0.55,0 -1,-0.45 -1,-1 z m 10.191667,-0.075 c 0.197083,-0.59125 0.785833,-1.075 1.308333,-1.075 0.5225,0 1.11125,0.48375 1.308333,1.075 0.197084,0.59125 -0.391666,1.075 -1.308333,1.075 -0.916667,0 -1.505417,-0.48375 -1.308333,-1.075 z M 157.40906,99.597627 c -0.70918,-0.769528 -0.84824,-1.399141 -0.30901,-1.399141 1.03844,0 2.54172,1.902214 1.94858,2.465674 -0.19258,0.18293 -0.93038,-0.29701 -1.63957,-1.066533 z M 82.931819,99.074398 c 0.678334,-0.683418 1.485241,-0.990671 1.793128,-0.682784 0.307888,0.307887 -0.247112,0.867048 -1.233333,1.242579 -1.425198,0.542687 -1.540062,0.427817 -0.559795,-0.559795 z m 15,0 c 0.678334,-0.683418 1.485241,-0.990671 1.793128,-0.682784 0.307893,0.307887 -0.247112,0.867048 -1.233333,1.242579 -1.425198,0.542687 -1.540062,0.427817 -0.559795,-0.559795 z m 20.266671,0.124088 c 0,-0.55 0.47656,-1 1.05902,-1 0.58246,0 0.7809,0.45 0.44098,1 -0.33992,0.55 -0.81648,1.000004 -1.05902,1.000004 -0.24254,0 -0.44098,-0.450004 -0.44098,-1.000004 z M 13.948486,98.118387 c -2.533693,-1.47574 -2.294127,-6.558326 0.376493,-7.987598 3.338686,-1.786811 6.873507,0.275954 6.873507,4.011074 0,4.165944 -3.566365,6.122047 -7.25,3.976524 z m 4.75,-3.933596 c 0,-1.772432 -0.609481,-2.573266 -2.122722,-2.789177 -2.541666,-0.362647 -3.935688,2.425102 -2.236492,4.472509 1.792966,2.160392 4.359214,1.169423 4.359214,-1.683332 z m 7.13948,3.319842 c -1.126184,-1.126184 -0.68589,-2.306147 0.86052,-2.306147 0.825,0 1.5,0.423442 1.5,0.940983 0,1.260978 -1.561589,2.164095 -2.36052,1.365164 z m 13.6056,-0.461067 c -2.875177,-2.875177 -0.764034,-7.84508 3.332475,-7.84508 2.934991,0 4.635696,2.279597 4.244703,5.689528 -0.264172,2.303889 -0.86389,2.86366 -3.327178,3.105552 -1.652706,0.162294 -3.565206,-0.265206 -4.25,-0.95 z m 5.649728,-1.218332 c 2.481829,-2.99042 -1.617168,-6.761531 -4.363887,-4.014812 -1.147144,1.147144 -1.26996,2.007158 -0.493755,3.45751 1.210368,2.261592 3.249091,2.495488 4.857642,0.557302 z m -14.394808,0.373252 c 0.339919,-0.55 1.041476,-1 1.559017,-1 0.517541,0 0.940983,0.45 0.940983,1 0,0.55 -0.701558,1 -1.559017,1 -0.857459,0 -1.280902,-0.45 -0.940983,-1 z m -4.449813,-6.439528 c -1.609036,-1.93877 -0.945816,-6.611114 1.122154,-7.905509 2.851534,-1.784849 6.827659,0.712533 6.827659,4.288414 0,4.384618 -5.308346,6.799868 -7.949813,3.617095 z m 5.76995,-3.314943 C 32.416122,83.644743 29.621688,82.346713 27.5842,84.3842 c -2.000907,2.000908 -0.706373,5.002102 1.991564,4.617158 1.321116,-0.188498 2.243616,-1.154231 2.442859,-2.557343 z"
       style="fill:#ffffff;fill-opacity:1" />
    <path
       id="path1400"
       d="m 182.96178,106.94849 c -2.71396,-4.1633 -4.93769,-8.975825 -3.8316,-8.29222 0.60329,0.372852 1.99961,2.44738 3.10292,4.61007 1.10332,2.16268 2.20083,3.93215 2.43892,3.93215 0.23808,0 1.3594,-2.09454 2.4918,-4.65454 1.13241,-2.559997 2.30872,-4.404743 2.61403,-4.099436 0.52779,0.527784 -4.20895,10.753976 -4.9812,10.753976 -0.20248,0 -1.02817,-1.0125 -1.83487,-2.25 z M 53.198486,101.36516 v -7.166674 l 7.25,0.19586 7.25,0.195861 -6.65,0.34755 -6.65,0.34755 v 6.023263 c 0,3.31279 -0.27,6.29325 -0.6,6.62325 -0.33,0.33 -0.6,-2.625 -0.6,-6.56666 z m 16.125167,1.88333 c -0.0735,-3.20044 0.239723,-5.057879 0.758851,-4.500004 0.486211,0.5225 0.542536,2.975004 0.125167,5.450004 l -0.758852,4.5 z m 12.910017,3.01574 c -1.300237,-2.42951 -1.350878,-5.37889 -0.07886,-4.59273 0.525979,0.32507 0.755706,1.13913 0.510505,1.80902 -0.953601,2.60521 1.222119,3.9441 5.815001,3.57842 2.489998,-0.19825 4.318664,-0.0229 4.063702,0.38955 -0.254963,0.4125 -2.446178,0.75 -4.869367,0.75 -3.332429,0 -4.657998,-0.47124 -5.440983,-1.93426 z m 15,0 c -1.300237,-2.42951 -1.350878,-5.37889 -0.07886,-4.59273 0.525979,0.32507 0.755706,1.13913 0.510505,1.80902 -0.953601,2.60521 1.222119,3.9441 5.814995,3.57842 2.49,-0.19825 4.31867,-0.0229 4.0637,0.38955 -0.25496,0.4125 -2.44617,0.75 -4.86936,0.75 -3.332428,0 -4.657997,-0.47124 -5.440982,-1.93426 z m 15.30103,-5.06574 c 0,-4.125004 0.17651,-5.812504 0.39226,-3.750004 0.21574,2.0625 0.21574,5.437504 0,7.500004 -0.21575,2.0625 -0.39226,0.375 -0.39226,-3.75 z m 4.99962,5.43278 c -0.33077,-0.86197 -0.11682,-2.05179 0.47544,-2.64405 0.76911,-0.76911 0.92127,-0.48197 0.53247,1.00482 -0.48007,1.83577 -0.0305,2.12744 3.80595,2.46934 l 4.35031,0.3877 -4.28138,0.1747 c -3.08027,0.1257 -4.45011,-0.26496 -4.88279,-1.39251 z m 10.814,-0.18278 c -0.0824,-1.2375 -0.71233,-2.25689 -1.39983,-2.26531 -0.83073,-0.0102 -0.74687,-0.33536 0.25,-0.96949 1.24028,-0.78896 1.2821,-1.30575 0.24153,-2.98469 -0.71766,-1.157918 -0.83328,-2.030514 -0.26906,-2.030514 1.33661,0 2.28115,4.105024 1.75544,7.629174 -0.3254,2.18138 -0.46423,2.33048 -0.57808,0.62083 z m 3.97534,-3.2 c -0.0735,-3.20044 0.23972,-5.057879 0.75885,-4.500004 0.48621,0.5225 0.54253,2.975004 0.12516,5.450004 l -0.75885,4.5 z m 11.04293,0.78333 c -0.0957,-2.65617 -0.70663,-4.883967 -1.4181,-5.171053 -0.97906,-0.395059 -0.97226,-0.521498 0.0314,-0.583334 1.78139,-0.109752 2.42115,2.040717 1.95336,6.565897 -0.38538,3.72788 -0.40408,3.70108 -0.56664,-0.81151 z m 4.67485,1.72132 c -1.27074,-2.78896 0.12153,-7.554654 2.20704,-7.554654 0.60108,0 0.38572,0.707143 -0.47856,1.571429 -1.67566,1.675665 -1.94304,3.296605 -0.96444,5.846785 0.69567,1.8129 8.87959,2.28099 9.73468,0.55679 0.27958,-0.56375 0.3944,-0.45125 0.25516,0.25 -0.15079,0.75941 -2.14099,1.3982 -4.92154,1.57965 -4.17621,0.27253 -4.79108,0.0353 -5.83234,-2.25 z m 15.45671,-2.55465 c 0,-3.025 0.18747,-4.262504 0.41659,-2.75 0.22913,1.5125 0.22913,3.9875 0,5.5 -0.22912,1.5125 -0.41659,0.275 -0.41659,-2.75 z m 6.58902,0.1875 c -0.52246,-7.140991 0.35034,-9.212459 3.8291,-9.087824 l 2.78222,0.09968 -2.5,0.694806 c -2.22516,0.618422 -2.53145,1.294567 -2.78603,6.150328 -0.39936,7.61706 -0.86921,8.37681 -1.32529,2.14301 z m -143.888684,2.3125 c 0,-0.825 0.45,-1.5 1,-1.5 0.55,0 1,0.675 1,1.5 0,0.825 -0.45,1.5 -1,1.5 -0.55,0 -1,-0.675 -1,-1.5 z m 5,-0.5 c 0,-0.55 0.45,-1 1,-1 0.55,0 1,0.45 1,1 0,0.55 -0.45,1 -1,1 -0.55,0 -1,-0.45 -1,-1 z m 60.344085,-4.53269 c -0.646213,-1.379351 -0.742612,-2.467314 -0.218615,-2.467314 1.111134,0 2.208521,2.511824 1.71886,3.934324 -0.189382,0.55017 -0.864492,-0.10999 -1.500245,-1.46701 z m 15.000009,0 c -0.64622,-1.379351 -0.74262,-2.467314 -0.21862,-2.467314 1.11113,0 2.20852,2.511824 1.71886,3.934324 -0.18938,0.55017 -0.86449,-0.10999 -1.50024,-1.46701 z m -83.344094,0.53269 c 0,-0.55 0.45,-1 1,-1 0.55,0 1,0.45 1,1 0,0.55 -0.45,1 -1,1 -0.55,0 -1,-0.45 -1,-1 z m 10.191667,-0.075 c 0.197083,-0.59125 0.785833,-1.075 1.308333,-1.075 0.5225,0 1.11125,0.48375 1.308333,1.075 0.197084,0.59125 -0.391666,1.075 -1.308333,1.075 -0.916667,0 -1.505417,-0.48375 -1.308333,-1.075 z M 157.40906,99.597627 c -0.70918,-0.769528 -0.84824,-1.399141 -0.30901,-1.399141 1.03844,0 2.54172,1.902214 1.94858,2.465674 -0.19258,0.18293 -0.93038,-0.29701 -1.63957,-1.066533 z M 82.931819,99.074398 c 0.678334,-0.683418 1.485241,-0.990671 1.793128,-0.682784 0.307888,0.307887 -0.247112,0.867048 -1.233333,1.242579 -1.425198,0.542687 -1.540062,0.427817 -0.559795,-0.559795 z m 15,0 c 0.678334,-0.683418 1.485241,-0.990671 1.793128,-0.682784 0.307893,0.307887 -0.247112,0.867048 -1.233333,1.242579 -1.425198,0.542687 -1.540062,0.427817 -0.559795,-0.559795 z m 20.266671,0.124088 c 0,-0.55 0.47656,-1 1.05902,-1 0.58246,0 0.7809,0.45 0.44098,1 -0.33992,0.55 -0.81648,1.000004 -1.05902,1.000004 -0.24254,0 -0.44098,-0.450004 -0.44098,-1.000004 z M 25.837966,97.504633 c -1.126184,-1.126184 -0.68589,-2.306147 0.86052,-2.306147 0.825,0 1.5,0.423442 1.5,0.940983 0,1.260978 -1.561589,2.164095 -2.36052,1.365164 z m 4.86052,-1.306147 c 0.339919,-0.55 1.041476,-1 1.559017,-1 0.517541,0 0.940983,0.45 0.940983,1 0,0.55 -0.701558,1 -1.559017,1 -0.857459,0 -1.280902,-0.45 -0.940983,-1 z"
       style="fill:#ffffff;fill-opacity:1" />
  </g>
</svg>
